<svg width="187" height="187" viewBox="0 0 187 187" fill="none" xmlns="http://www.w3.org/2000/svg">
<mask id="mask0_201_509" style="mask-type:luminance" maskUnits="userSpaceOnUse" x="65" y="47" width="56" height="56">
<path d="M65.28 47.3936H120.004V102.22H65.28V47.3936Z" fill="white"/>
</mask>
<g mask="url(#mask0_201_509)">
<mask id="mask1_201_509" style="mask-type:luminance" maskUnits="userSpaceOnUse" x="65" y="47" width="55" height="56">
<path d="M74.1715 47.3311H111.122C111.266 47.3311 111.41 47.3345 111.554 47.3417C111.698 47.349 111.842 47.3597 111.986 47.3738C112.129 47.3879 112.273 47.4054 112.415 47.4268C112.558 47.4477 112.7 47.4724 112.841 47.5006C112.983 47.5288 113.124 47.5604 113.264 47.5953C113.404 47.6308 113.543 47.6692 113.681 47.711C113.819 47.7528 113.956 47.7979 114.092 47.847C114.228 47.8956 114.363 47.9476 114.496 48.0025C114.629 48.0579 114.761 48.1162 114.891 48.1779C115.022 48.2396 115.151 48.3047 115.278 48.3727C115.405 48.4407 115.531 48.5116 115.654 48.5859C115.778 48.6603 115.9 48.7375 116.02 48.8177C116.14 48.8978 116.258 48.9809 116.374 49.0669C116.49 49.1529 116.604 49.2418 116.715 49.3331C116.827 49.425 116.936 49.5192 117.043 49.6164C117.15 49.7131 117.254 49.8127 117.356 49.9147C117.458 50.0167 117.558 50.1212 117.655 50.228C117.752 50.3354 117.846 50.4447 117.937 50.556C118.029 50.6677 118.118 50.7814 118.204 50.8975C118.29 51.0131 118.373 51.1312 118.453 51.2512C118.533 51.3712 118.61 51.4931 118.685 51.617C118.758 51.7409 118.83 51.8667 118.898 51.994C118.966 52.1213 119.03 52.2501 119.092 52.3807C119.154 52.5109 119.213 52.6431 119.268 52.7762C119.323 52.9098 119.375 53.0444 119.423 53.1804C119.472 53.3164 119.517 53.4535 119.559 53.5914C119.601 53.7294 119.64 53.8688 119.675 54.0088C119.71 54.1487 119.741 54.2896 119.769 54.4309C119.798 54.5728 119.822 54.7147 119.843 54.8575C119.865 55.0003 119.882 55.1436 119.897 55.2875C119.911 55.4313 119.921 55.5751 119.928 55.7194C119.936 55.8632 119.939 56.0074 119.939 56.1517V93.3418C119.939 93.4861 119.936 93.6304 119.928 93.7747C119.921 93.919 119.911 94.0628 119.897 94.2066C119.882 94.3504 119.865 94.4932 119.843 94.6361C119.822 94.7789 119.798 94.9213 119.769 95.0626C119.741 95.2045 119.71 95.3454 119.675 95.4853C119.64 95.6252 119.601 95.7642 119.559 95.9026C119.517 96.0406 119.472 96.1776 119.423 96.3136C119.375 96.4497 119.323 96.5842 119.268 96.7174C119.213 96.851 119.154 96.9826 119.092 97.1133C119.03 97.244 118.966 97.3727 118.898 97.5C118.83 97.6273 118.758 97.7531 118.685 97.8765C118.61 98.0004 118.533 98.1224 118.453 98.2424C118.373 98.3624 118.29 98.4804 118.204 98.5965C118.118 98.7127 118.029 98.8263 117.937 98.9381C117.846 99.0493 117.752 99.1586 117.655 99.2655C117.558 99.3729 117.458 99.4773 117.356 99.5794C117.254 99.6814 117.15 99.781 117.043 99.8777C116.936 99.9748 116.827 100.069 116.715 100.16C116.604 100.252 116.49 100.341 116.374 100.427C116.258 100.513 116.14 100.596 116.02 100.676C115.9 100.757 115.778 100.834 115.654 100.908C115.531 100.982 115.405 101.053 115.278 101.121C115.151 101.189 115.022 101.254 114.891 101.316C114.761 101.377 114.629 101.436 114.496 101.491C114.363 101.546 114.228 101.598 114.092 101.647C113.956 101.696 113.819 101.741 113.681 101.783C113.543 101.825 113.404 101.863 113.264 101.898C113.124 101.934 112.983 101.965 112.841 101.993C112.7 102.022 112.558 102.046 112.415 102.067C112.273 102.089 112.129 102.106 111.985 102.12C111.842 102.134 111.698 102.145 111.554 102.152C111.41 102.159 111.266 102.163 111.122 102.163H74.1715C74.0272 102.163 73.883 102.159 73.7391 102.152C73.5949 102.145 73.451 102.134 73.3072 102.12C73.1639 102.106 73.0206 102.089 72.8778 102.067C72.7349 102.046 72.5931 102.022 72.4512 101.993C72.3098 101.965 72.169 101.934 72.029 101.898C71.8891 101.863 71.7502 101.825 71.6122 101.783C71.4737 101.741 71.3372 101.696 71.2012 101.647C71.0652 101.598 70.9306 101.546 70.7975 101.492C70.6639 101.436 70.5322 101.378 70.4015 101.316C70.2713 101.254 70.1426 101.189 70.0153 101.121C69.888 101.053 69.7622 100.982 69.6383 100.908C69.5149 100.834 69.3929 100.757 69.2729 100.676C69.1529 100.596 69.0349 100.513 68.9193 100.427C68.8031 100.341 68.6895 100.252 68.5777 100.16C68.4665 100.069 68.3571 99.9748 68.2503 99.8777C68.1434 99.781 68.0389 99.6814 67.9369 99.5794C67.8349 99.4773 67.7353 99.3729 67.6381 99.2655C67.5414 99.1586 67.4472 99.0493 67.3559 98.9381C67.264 98.8263 67.1751 98.7127 67.0891 98.5965C67.0031 98.4804 66.9206 98.3624 66.8399 98.2424C66.7597 98.1224 66.683 98.0004 66.6087 97.8765C66.5343 97.7531 66.4634 97.6273 66.3954 97.5C66.3274 97.3727 66.2623 97.244 66.2006 97.1133C66.1389 96.9826 66.0806 96.851 66.0252 96.7174C65.9703 96.5842 65.9183 96.4497 65.8697 96.3136C65.8211 96.1776 65.7759 96.0406 65.7337 95.9026C65.6919 95.7642 65.6535 95.6252 65.6185 95.4853C65.5836 95.3454 65.5515 95.2045 65.5238 95.0626C65.4956 94.9213 65.4708 94.7789 65.4495 94.6361C65.4286 94.4932 65.4106 94.3504 65.3965 94.2066C65.3824 94.0628 65.3717 93.919 65.3649 93.7747C65.3576 93.6304 65.3542 93.4861 65.3542 93.3418V56.1517C65.3542 56.0074 65.3576 55.8632 65.3649 55.7194C65.3717 55.5751 65.3824 55.4313 65.3965 55.2875C65.4106 55.1436 65.4286 55.0003 65.4495 54.8575C65.4708 54.7147 65.4956 54.5728 65.5238 54.4309C65.5515 54.2896 65.5836 54.1487 65.6185 54.0088C65.6535 53.8688 65.6919 53.7294 65.7337 53.5914C65.7759 53.4535 65.8211 53.3164 65.8697 53.1804C65.9183 53.0444 65.9703 52.9098 66.0252 52.7762C66.0806 52.6431 66.1389 52.5109 66.2006 52.3807C66.2623 52.2501 66.3274 52.1213 66.3954 51.994C66.4634 51.8667 66.5343 51.7409 66.6087 51.617C66.683 51.4931 66.7597 51.3712 66.8404 51.2512C66.9206 51.1312 67.0036 51.0131 67.0891 50.8975C67.1751 50.7814 67.264 50.6677 67.3559 50.556C67.4472 50.4447 67.5414 50.3354 67.6381 50.228C67.7353 50.1212 67.8349 50.0167 67.9369 49.9147C68.0389 49.8127 68.1434 49.7131 68.2503 49.6164C68.3571 49.5192 68.4665 49.425 68.5777 49.3331C68.6895 49.2418 68.8031 49.1529 68.9193 49.0669C69.0349 48.9809 69.1529 48.8978 69.2729 48.8177C69.3929 48.7375 69.5149 48.6603 69.6383 48.5859C69.7622 48.5116 69.888 48.4407 70.0153 48.3727C70.1426 48.3047 70.2713 48.2396 70.4015 48.1779C70.5322 48.1162 70.6639 48.0579 70.7975 48.0025C70.9306 47.9476 71.0652 47.8956 71.2012 47.8465C71.3372 47.7979 71.4737 47.7528 71.6122 47.711C71.7502 47.6692 71.8891 47.6308 72.029 47.5953C72.169 47.5604 72.3098 47.5288 72.4512 47.5006C72.5931 47.4724 72.7349 47.4477 72.8778 47.4268C73.0206 47.4054 73.1639 47.3879 73.3072 47.3738C73.451 47.3597 73.5949 47.349 73.7391 47.3417C73.883 47.3345 74.0272 47.3311 74.1715 47.3311Z" fill="white"/>
</mask>
<g mask="url(#mask1_201_509)">
<path d="M65.3538 47.3936V102.163H119.938V47.3936H65.3538Z" fill="url(#paint0_linear_201_509)"/>
</g>
</g>
<path d="M93.0541 70.9283C94.4485 70.9283 95.5051 70.6295 96.2251 70.0183C96.9456 69.4071 97.3051 68.5171 97.3051 67.3341C97.3051 66.1662 96.9456 65.2791 96.2251 64.6727C95.5003 64.0509 94.448 63.74 93.0541 63.74H88.1594V70.9287H93.0541M93.3529 85.7839C95.1296 85.7839 96.4622 85.4127 97.3508 84.6694C98.2549 83.9261 98.7067 82.8038 98.7067 81.3026C98.7067 79.8311 98.2627 78.7316 97.3741 78.0043C96.4855 77.261 95.1451 76.8894 93.3534 76.8894H88.1599V85.7849H93.3534M101.579 73.5687C103.479 74.1143 104.949 75.1234 105.991 76.594C107.033 78.0646 107.553 79.8699 107.554 82.0085C107.554 85.2845 106.435 87.7262 104.199 89.3338C101.963 90.9414 98.5625 91.745 93.9971 91.745H79.3145V57.7881H92.596C97.36 57.7881 100.806 58.5008 102.935 59.9267C105.08 61.3521 106.153 63.635 106.153 66.7744C106.153 68.4277 105.762 69.8376 104.981 71.0055C104.2 72.1579 103.062 73.01 101.58 73.576" fill="white"/>
<path d="M16.0838 120.398V129.624H21.5479C23.3785 129.624 24.7359 129.247 25.6128 128.494C26.5004 127.729 26.9425 126.564 26.9425 125.004C26.9425 123.449 26.4989 122.271 25.6128 121.528C24.7359 120.775 23.3819 120.398 21.5479 120.398H16.0838ZM16.0838 110.04V117.633H21.1267C22.7911 117.633 24.0275 117.322 24.836 116.705C25.656 116.074 26.067 115.119 26.067 113.837C26.067 112.565 25.656 111.615 24.836 110.986C24.0154 110.358 22.7897 110.041 21.1267 110.041H16.0838M12.6767 107.243H21.3803C23.9775 107.243 25.9791 107.783 27.3846 108.863C28.7906 109.943 29.4916 111.479 29.4916 113.469C29.4916 115.01 29.1326 116.237 28.4121 117.149C27.6921 118.061 26.6335 118.628 25.2416 118.852C26.9168 119.211 28.2154 119.966 29.1375 121.098C30.0703 122.235 30.5192 123.655 30.5192 125.365C30.5192 127.614 29.754 129.352 28.2256 130.579C26.6977 131.806 24.5216 132.417 21.698 132.417H12.6592V107.234" fill="#484C89"/>
<path d="M43.3661 115.705C43.1746 115.699 42.9837 115.704 42.7928 115.721C42.6023 115.739 42.4133 115.768 42.2263 115.808C42.0393 115.849 41.8551 115.901 41.6744 115.964C41.4937 116.027 41.3178 116.101 41.1463 116.186C40.9748 116.271 40.8091 116.367 40.6493 116.473C40.4895 116.578 40.3369 116.693 40.1917 116.818C40.0459 116.942 39.9084 117.075 39.7797 117.216C39.6504 117.358 39.5304 117.506 39.4197 117.663C38.4529 118.959 37.969 120.733 37.969 122.994C37.969 125.255 38.4475 127.036 39.4027 128.343C40.3695 129.639 41.6909 130.283 43.3661 130.283C43.5565 130.289 43.7469 130.283 43.9369 130.266C44.1269 130.248 44.3149 130.219 44.5014 130.178C44.6875 130.138 44.8712 130.085 45.0509 130.022C45.2307 129.959 45.406 129.885 45.5771 129.8C45.7476 129.715 45.9128 129.619 46.0716 129.514C46.2305 129.408 46.3826 129.294 46.5273 129.169C46.6721 129.045 46.8086 128.912 46.9369 128.771C47.0651 128.63 47.1847 128.481 47.2945 128.325C48.2617 127.021 48.7451 125.243 48.7451 122.994C48.7451 120.755 48.2617 118.986 47.2945 117.68C46.3277 116.364 45.0184 115.705 43.3661 115.705ZM43.3661 113.074C46.0634 113.074 48.201 113.952 49.7246 115.705C51.2476 117.459 52.0352 119.89 52.0352 122.996C52.0352 126.102 51.2646 128.519 49.7246 130.286C48.184 132.041 46.0634 132.917 43.3661 132.917C40.6547 132.917 38.5306 132.04 36.9765 130.286C35.448 128.521 34.6829 126.091 34.6829 122.996C34.6829 119.891 35.448 117.462 36.9765 115.705C38.5165 113.95 40.6406 113.074 43.3661 113.074Z" fill="#484C89"/>
<path d="M64.3082 115.705C64.1168 115.699 63.9259 115.704 63.7354 115.721C63.5445 115.739 63.3555 115.768 63.1684 115.808C62.9814 115.849 62.7978 115.901 62.617 115.964C62.4363 116.027 62.2599 116.101 62.0885 116.186C61.917 116.271 61.7513 116.367 61.5919 116.473C61.4321 116.578 61.2795 116.693 61.1338 116.818C60.9885 116.942 60.851 117.075 60.7218 117.216C60.5931 117.358 60.4731 117.506 60.3623 117.663C59.395 118.959 58.9116 120.733 58.9116 122.994C58.9116 125.255 59.3902 127.036 60.3448 128.343C61.3121 129.639 62.6331 130.283 64.3082 130.283C64.4991 130.289 64.6891 130.283 64.879 130.266C65.069 130.248 65.2575 130.219 65.4436 130.178C65.6301 130.138 65.8133 130.085 65.993 130.022C66.1733 129.959 66.3487 129.885 66.5192 129.8C66.6902 129.715 66.8549 129.619 67.0138 129.514C67.1731 129.408 67.3247 129.294 67.4695 129.169C67.6143 129.045 67.7513 128.912 67.8795 128.771C68.0078 128.63 68.1268 128.481 68.2371 128.325C69.2039 127.021 69.6878 125.243 69.6878 122.994C69.6878 120.755 69.2039 118.986 68.2371 117.68C67.2698 116.364 65.961 115.705 64.3082 115.705ZM64.3082 113.074C67.0055 113.074 69.1436 113.952 70.6667 115.705C72.1898 117.459 72.9773 119.89 72.9773 122.996C72.9773 126.102 72.2073 128.519 70.6667 130.286C69.1261 132.041 67.0055 132.917 64.3082 132.917C61.5968 132.917 59.4728 132.04 57.9186 130.286C56.3902 128.521 55.6255 126.091 55.6255 122.996C55.6255 119.891 56.3902 117.462 57.9186 115.705C59.4592 113.95 61.5832 113.074 64.3082 113.074Z" fill="#484C89"/>
<mask id="mask2_201_509" style="mask-type:luminance" maskUnits="userSpaceOnUse" x="75" y="108" width="100" height="32">
<path d="M75.4778 108.061H174.478V139.642H75.4778V108.061Z" fill="white"/>
</mask>
<g mask="url(#mask2_201_509)">
<path d="M80.9995 108.162V113.526H87.3891V115.938H80.9995V126.196C80.9995 127.737 81.207 128.727 81.6214 129.168C82.0479 129.607 82.9078 129.824 84.2016 129.824H87.3891V132.422H84.1997C81.8045 132.422 80.1517 131.978 79.2432 131.092C78.3333 130.194 77.862 128.561 77.862 126.199V115.938H75.5859V113.526H77.862V108.166H80.9825M103.339 114.086V117.023C102.469 116.575 101.559 116.238 100.607 116.01C99.6626 115.786 98.6851 115.673 97.6712 115.673C96.1311 115.673 94.9724 115.91 94.197 116.364C93.4318 116.836 93.05 117.546 93.05 118.489C93.05 119.21 93.3264 119.776 93.8788 120.193C94.4317 120.597 95.5369 120.987 97.2019 121.357L98.2639 121.594C100.467 122.066 102.029 122.734 102.952 123.601C103.885 124.456 104.334 125.654 104.334 127.195C104.34 127.397 104.334 127.599 104.315 127.8C104.296 128.001 104.265 128.201 104.222 128.398C104.179 128.596 104.124 128.79 104.057 128.981C103.989 129.172 103.911 129.357 103.821 129.539C103.731 129.72 103.63 129.895 103.519 130.063C103.407 130.232 103.285 130.393 103.154 130.547C103.023 130.7 102.882 130.845 102.733 130.981C102.583 131.118 102.426 131.245 102.261 131.362C100.88 132.384 98.9737 132.916 96.5625 132.916C95.5505 132.916 94.4939 132.813 93.392 132.612C92.3008 132.44 91.147 132.128 89.9349 131.735V128.53C91.0814 129.126 92.211 129.575 93.3245 129.878C94.4074 130.167 95.5092 130.313 96.63 130.316C98.0909 130.316 99.2151 130.07 100.003 129.573C100.79 129.067 101.184 128.359 101.184 127.448C101.184 126.606 100.897 125.958 100.324 125.509C99.7607 125.06 98.5194 124.645 96.597 124.209L95.518 123.957C93.596 123.553 92.2076 122.935 91.3525 122.102C90.4979 121.259 90.0714 120.105 90.0714 118.643C90.0714 116.864 90.7015 115.494 91.9603 114.526C93.2195 113.559 95.0069 113.075 97.3223 113.075C98.4087 113.07 99.4882 113.154 100.56 113.327C101.52 113.481 102.454 113.734 103.36 114.086M112.224 108.16V113.524H118.614V115.936H112.224V126.195C112.224 127.736 112.432 128.725 112.846 129.166C113.273 129.605 114.132 129.822 115.426 129.822H118.617V132.42H115.429C113.034 132.42 111.381 131.977 110.473 131.09C109.563 130.192 109.092 128.56 109.092 126.198V115.936H106.815V113.524H109.092V108.166H112.228M133.469 116.432C133.11 116.225 132.728 116.079 132.322 115.993C131.879 115.886 131.43 115.835 130.975 115.841C129.22 115.841 127.872 116.415 126.927 117.562C125.994 118.698 125.546 120.335 125.546 122.472V132.426H122.425V113.526H125.546V116.463C126.198 115.316 127.048 114.466 128.093 113.915C129.138 113.352 130.407 113.072 131.904 113.072C132.141 113.073 132.377 113.09 132.612 113.122L133.472 113.239L133.489 116.428M145.188 122.924C142.68 122.924 140.943 123.211 139.976 123.784C139.009 124.358 138.525 125.336 138.525 126.721C138.525 127.824 138.884 128.701 139.604 129.352C140.335 129.992 141.324 130.315 142.575 130.315C144.295 130.315 145.673 129.707 146.707 128.492C147.752 127.283 148.275 125.642 148.275 123.617V122.926H145.189M151.378 121.644V132.424H148.275V129.556C147.585 130.704 146.687 131.553 145.628 132.105C144.571 132.643 143.279 132.916 141.749 132.916C139.815 132.916 138.275 132.378 137.128 131.298C135.992 130.206 135.425 128.75 135.425 126.927C135.425 124.802 136.116 123.199 137.549 122.119C138.983 121.039 141.102 120.5 143.939 120.5H148.291V120.196C148.291 118.768 147.819 117.665 146.875 116.89C145.942 116.102 144.626 115.708 142.929 115.708C141.849 115.708 140.798 115.838 139.775 116.097C138.742 116.359 137.758 116.747 136.824 117.261V114.393C137.96 113.955 139.062 113.628 140.13 113.415C141.158 113.195 142.198 113.083 143.25 113.079C145.982 113.079 148.023 113.77 149.372 115.204C150.721 116.637 151.396 118.769 151.396 121.647M160.635 129.588V139.607H157.514V113.528H160.635V116.395C161.288 115.273 162.108 114.438 163.098 113.899C164.099 113.346 165.291 113.07 166.672 113.07C166.941 113.064 167.21 113.074 167.478 113.1C167.746 113.126 168.012 113.168 168.275 113.225C168.538 113.283 168.797 113.357 169.051 113.445C169.306 113.534 169.554 113.637 169.796 113.756C170.038 113.874 170.272 114.007 170.498 114.153C170.724 114.3 170.941 114.459 171.148 114.632C171.355 114.804 171.55 114.988 171.736 115.184C171.921 115.38 172.093 115.587 172.253 115.803C173.692 117.626 174.412 120.018 174.412 122.99C174.412 125.961 173.692 128.354 172.253 130.176C172.093 130.393 171.921 130.599 171.736 130.795C171.55 130.991 171.355 131.175 171.148 131.348C170.941 131.52 170.724 131.68 170.498 131.826C170.272 131.973 170.038 132.105 169.796 132.224C169.554 132.342 169.306 132.446 169.051 132.535C168.797 132.623 168.538 132.696 168.275 132.754C168.012 132.812 167.746 132.854 167.478 132.88C167.21 132.906 166.941 132.915 166.672 132.91C165.291 132.91 164.082 132.64 163.098 132.097C162.108 131.545 161.288 130.708 160.635 129.584M171.191 122.988C171.191 120.704 170.72 118.916 169.775 117.624C168.843 116.32 167.555 115.667 165.914 115.667C165.725 115.66 165.536 115.666 165.348 115.683C165.16 115.7 164.973 115.729 164.789 115.77C164.604 115.81 164.423 115.863 164.245 115.926C164.067 115.99 163.893 116.064 163.725 116.149C163.556 116.234 163.393 116.33 163.236 116.435C163.079 116.541 162.929 116.656 162.787 116.78C162.645 116.905 162.511 117.037 162.385 117.179C162.259 117.319 162.142 117.468 162.036 117.624C161.103 118.92 160.654 120.706 160.654 122.988C160.654 125.27 161.12 127.065 162.036 128.37C162.98 129.665 164.273 130.31 165.914 130.31C167.555 130.31 168.843 129.663 169.775 128.37C170.72 127.065 171.191 125.27 171.191 122.988Z" fill="#484C89"/>
</g>
<defs>
<linearGradient id="paint0_linear_201_509" x1="65.5325" y1="102.339" x2="119.743" y2="47.2021" gradientUnits="userSpaceOnUse">
<stop stop-color="#283593"/>
<stop offset="0.0625" stop-color="#283593"/>
<stop offset="0.0703125" stop-color="#293593"/>
<stop offset="0.078125" stop-color="#293594"/>
<stop offset="0.0859375" stop-color="#2A3594"/>
<stop offset="0.09375" stop-color="#2B3594"/>
<stop offset="0.101563" stop-color="#2B3595"/>
<stop offset="0.109375" stop-color="#2C3595"/>
<stop offset="0.117188" stop-color="#2C3595"/>
<stop offset="0.125" stop-color="#2D3596"/>
<stop offset="0.132812" stop-color="#2D3596"/>
<stop offset="0.140625" stop-color="#2E3596"/>
<stop offset="0.148438" stop-color="#2E3697"/>
<stop offset="0.15625" stop-color="#2F3697"/>
<stop offset="0.164062" stop-color="#303697"/>
<stop offset="0.171875" stop-color="#303697"/>
<stop offset="0.179688" stop-color="#313698"/>
<stop offset="0.1875" stop-color="#313698"/>
<stop offset="0.195312" stop-color="#323698"/>
<stop offset="0.203125" stop-color="#323699"/>
<stop offset="0.210938" stop-color="#333699"/>
<stop offset="0.21875" stop-color="#333699"/>
<stop offset="0.226563" stop-color="#34369A"/>
<stop offset="0.234375" stop-color="#35369A"/>
<stop offset="0.242188" stop-color="#35369A"/>
<stop offset="0.25" stop-color="#36369B"/>
<stop offset="0.257812" stop-color="#36369B"/>
<stop offset="0.265625" stop-color="#37369B"/>
<stop offset="0.273438" stop-color="#37369C"/>
<stop offset="0.28125" stop-color="#38369C"/>
<stop offset="0.289062" stop-color="#38369C"/>
<stop offset="0.296875" stop-color="#39369D"/>
<stop offset="0.304688" stop-color="#39369D"/>
<stop offset="0.3125" stop-color="#3A369D"/>
<stop offset="0.320312" stop-color="#3B369E"/>
<stop offset="0.328125" stop-color="#3B379E"/>
<stop offset="0.335938" stop-color="#3C379E"/>
<stop offset="0.34375" stop-color="#3C379F"/>
<stop offset="0.351562" stop-color="#3D379F"/>
<stop offset="0.359375" stop-color="#3D379F"/>
<stop offset="0.367188" stop-color="#3E379F"/>
<stop offset="0.375" stop-color="#3E37A0"/>
<stop offset="0.382812" stop-color="#3F37A0"/>
<stop offset="0.390625" stop-color="#4037A0"/>
<stop offset="0.398438" stop-color="#4037A1"/>
<stop offset="0.40625" stop-color="#4137A1"/>
<stop offset="0.414062" stop-color="#4137A1"/>
<stop offset="0.421875" stop-color="#4237A2"/>
<stop offset="0.429688" stop-color="#4237A2"/>
<stop offset="0.4375" stop-color="#4337A2"/>
<stop offset="0.445312" stop-color="#4337A3"/>
<stop offset="0.453125" stop-color="#4437A3"/>
<stop offset="0.460938" stop-color="#4537A3"/>
<stop offset="0.46875" stop-color="#4537A4"/>
<stop offset="0.476562" stop-color="#4637A4"/>
<stop offset="0.484375" stop-color="#4637A4"/>
<stop offset="0.492188" stop-color="#4737A5"/>
<stop offset="0.494921" stop-color="#4737A5"/>
<stop offset="0.5" stop-color="#4837A5"/>
<stop offset="0.505079" stop-color="#4837A5"/>
<stop offset="0.507812" stop-color="#4838A5"/>
<stop offset="0.515625" stop-color="#4838A6"/>
<stop offset="0.523438" stop-color="#4938A6"/>
<stop offset="0.53125" stop-color="#4A38A6"/>
<stop offset="0.539062" stop-color="#4A38A6"/>
<stop offset="0.546875" stop-color="#4B38A7"/>
<stop offset="0.554687" stop-color="#4B38A7"/>
<stop offset="0.5625" stop-color="#4C38A7"/>
<stop offset="0.570312" stop-color="#4C38A8"/>
<stop offset="0.578125" stop-color="#4D38A8"/>
<stop offset="0.585937" stop-color="#4D38A8"/>
<stop offset="0.59375" stop-color="#4E38A9"/>
<stop offset="0.601562" stop-color="#4F38A9"/>
<stop offset="0.609375" stop-color="#4F38A9"/>
<stop offset="0.617188" stop-color="#5038AA"/>
<stop offset="0.625" stop-color="#5038AA"/>
<stop offset="0.632812" stop-color="#5138AA"/>
<stop offset="0.640625" stop-color="#5138AB"/>
<stop offset="0.648438" stop-color="#5238AB"/>
<stop offset="0.65625" stop-color="#5238AB"/>
<stop offset="0.664062" stop-color="#5338AC"/>
<stop offset="0.671875" stop-color="#5438AC"/>
<stop offset="0.679688" stop-color="#5438AC"/>
<stop offset="0.6875" stop-color="#5538AD"/>
<stop offset="0.695312" stop-color="#5539AD"/>
<stop offset="0.703125" stop-color="#5639AD"/>
<stop offset="0.710938" stop-color="#5639AD"/>
<stop offset="0.71875" stop-color="#5739AE"/>
<stop offset="0.726562" stop-color="#5739AE"/>
<stop offset="0.734375" stop-color="#5839AE"/>
<stop offset="0.742188" stop-color="#5939AF"/>
<stop offset="0.75" stop-color="#5939AF"/>
<stop offset="0.757812" stop-color="#5A39AF"/>
<stop offset="0.765625" stop-color="#5A39B0"/>
<stop offset="0.773438" stop-color="#5B39B0"/>
<stop offset="0.78125" stop-color="#5B39B0"/>
<stop offset="0.789062" stop-color="#5C39B1"/>
<stop offset="0.796875" stop-color="#5C39B1"/>
<stop offset="0.804688" stop-color="#5D39B1"/>
<stop offset="0.8125" stop-color="#5E39B2"/>
<stop offset="0.820312" stop-color="#5E39B2"/>
<stop offset="0.828125" stop-color="#5F39B2"/>
<stop offset="0.835938" stop-color="#5F39B3"/>
<stop offset="0.84375" stop-color="#6039B3"/>
<stop offset="0.851562" stop-color="#6039B3"/>
<stop offset="0.859375" stop-color="#6139B4"/>
<stop offset="0.867188" stop-color="#6139B4"/>
<stop offset="0.875" stop-color="#6239B4"/>
<stop offset="0.882812" stop-color="#633AB5"/>
<stop offset="0.890625" stop-color="#633AB5"/>
<stop offset="0.898438" stop-color="#643AB5"/>
<stop offset="0.90625" stop-color="#643AB5"/>
<stop offset="0.914062" stop-color="#653AB6"/>
<stop offset="0.921875" stop-color="#653AB6"/>
<stop offset="0.929688" stop-color="#663AB6"/>
<stop offset="0.9375" stop-color="#663AB7"/>
<stop offset="1" stop-color="#673AB7"/>
</linearGradient>
</defs>
</svg>
