<svg width="188" height="187" viewBox="0 0 188 187" fill="none" xmlns="http://www.w3.org/2000/svg">
<path fill-rule="evenodd" clip-rule="evenodd" d="M89.397 5.42416C92.2843 3.80393 95.8396 3.80393 98.7225 5.42416C112.989 13.4321 155.92 37.5374 170.19 45.5453C173.077 47.1611 174.855 50.1553 174.855 53.3957C174.855 69.412 174.855 117.618 174.855 133.634C174.855 136.875 173.077 139.868 170.19 141.488C155.924 149.497 112.993 173.602 98.7225 181.61C95.8352 183.23 92.2804 183.23 89.397 181.61C75.1307 173.602 32.2 149.497 17.9293 141.488C15.0464 139.868 13.2688 136.878 13.2688 133.638C13.2688 117.622 13.2688 69.4164 13.2688 53.4001C13.2688 50.1596 15.0464 47.1655 17.9337 45.5453C32.1957 37.5374 75.135 13.4321 89.397 5.42416Z" fill="#283593"/>
<path fill-rule="evenodd" clip-rule="evenodd" d="M14.5616 137.762C13.4306 136.249 13.2688 134.811 13.2688 132.876C13.2688 116.953 13.2688 69.0241 13.2688 53.0977C13.2688 49.8737 15.0421 46.8971 17.9211 45.2895C32.1364 37.3282 74.9227 13.3633 89.1381 5.39817C92.0166 3.78619 95.9158 3.8202 98.7949 5.43217C113.01 13.3934 155.652 37.1538 169.867 45.1151C171.015 45.7612 171.891 46.5395 172.674 47.5646L14.5616 137.762Z" fill="#5C6BC0"/>
<path fill-rule="evenodd" clip-rule="evenodd" d="M94.0616 33.9766C126.919 33.9766 153.593 60.6543 153.593 93.5157C153.593 126.377 126.919 153.055 94.0616 153.055C61.2046 153.055 34.5298 126.377 34.5298 93.5157C34.5298 60.6543 61.2046 33.9766 94.0616 33.9766ZM94.0616 63.7461C110.488 63.7461 123.827 77.0831 123.827 93.5157C123.827 109.944 110.488 123.285 94.0616 123.285C77.6353 123.285 64.296 109.944 64.296 93.5157C64.296 77.0831 77.6309 63.7461 94.0616 63.7461Z" fill="white"/>
<path fill-rule="evenodd" clip-rule="evenodd" d="M172.665 47.6055C174.859 49.6595 174.816 52.7552 174.816 55.1922C174.816 71.3318 174.68 117.237 174.855 133.376C174.872 135.06 174.314 136.834 173.481 138.169L92.3311 93.5142L172.665 47.6055Z" fill="#3949AB"/>
</svg>
