<?xml version="1.0" encoding="utf-8"?>
<!-- Uploaded to: SVG Repo, www.svgrepo.com, Generator: SVG Repo Mixer Tools -->
<svg width="800px" height="800px" viewBox="0 0 1024 1024" class="icon"  version="1.1" xmlns="http://www.w3.org/2000/svg"><path d="M517.8 811c17.1 0 31 13.9 31 30.9 0 17.1-13.9 30.9-31 30.9s-31-13.9-31-30.9 13.9-30.9 31-30.9m0-20c-28.1 0-51 22.8-51 50.9 0 28.1 22.8 50.9 51 50.9s51-22.8 51-50.9c-0.1-28.1-22.9-50.9-51-50.9zM334.218 304.477l65.69-65.69 14.142 14.143-65.69 65.69zM352.086 387.799L483.253 256.63l14.142 14.142-131.167 131.168z" fill="#E73B37" /><path d="M808 108.4v807.2H216V108.4h592m44-44H172v895.2h680V64.4z" fill="#39393A" /><path d="M747.1 173.4v572.9H279.9V173.4h467.2m22-22H257.9v616.9h511.2V151.4z" fill="#39393A" /></svg>