<svg width="187" height="187" viewBox="0 0 187 187" fill="none" xmlns="http://www.w3.org/2000/svg">
<mask id="mask0_201_85" style="mask-type:luminance" maskUnits="userSpaceOnUse" x="136" y="4" width="35" height="36">
<path d="M136.178 4.67188H170.572V39.0519H136.178V4.67188Z" fill="white"/>
</mask>
<g mask="url(#mask0_201_85)">
<path d="M136.253 4.67188L170.548 38.9742H136.253V4.67188Z" fill="#59CAFF"/>
</g>
<mask id="mask1_201_85" style="mask-type:luminance" maskUnits="userSpaceOnUse" x="39" y="4" width="132" height="178">
<path d="M39.0447 4.67188H170.573V181.901H39.0447V4.67188Z" fill="white"/>
</mask>
<g mask="url(#mask1_201_85)">
<path d="M170.549 38.9742V181.902H39.0847V4.67188H136.254V38.9742H170.549Z" fill="#0096DC"/>
</g>
<path d="M44.801 27.541V164.751C44.801 164.938 44.8054 165.125 44.8146 165.312C44.8239 165.5 44.8375 165.686 44.8559 165.872C44.8744 166.058 44.8972 166.244 44.9244 166.429C44.9521 166.614 44.9842 166.799 45.0206 166.982C45.0571 167.166 45.0979 167.348 45.1435 167.53C45.1887 167.711 45.2388 167.892 45.2932 168.071C45.3476 168.25 45.4059 168.427 45.469 168.603C45.5322 168.78 45.5992 168.954 45.6711 169.127C45.7426 169.3 45.8183 169.471 45.8985 169.64C45.9782 169.809 46.0622 169.976 46.1507 170.142C46.2391 170.306 46.3309 170.47 46.4271 170.63C46.5233 170.79 46.6234 170.949 46.7273 171.104C46.8313 171.259 46.9392 171.413 47.0504 171.563C47.1621 171.713 47.2768 171.86 47.3958 172.005C47.5144 172.15 47.6363 172.291 47.7621 172.43C47.888 172.569 48.0167 172.704 48.1489 172.836C48.2815 172.969 48.417 173.098 48.5555 173.224C48.694 173.35 48.8358 173.471 48.9801 173.59C49.1249 173.709 49.2726 173.824 49.4227 173.935C49.5728 174.047 49.7259 174.155 49.8813 174.258C50.0368 174.362 50.1952 174.463 50.3555 174.559C50.5158 174.655 50.6786 174.747 50.8437 174.836C51.0084 174.924 51.1756 175.008 51.3446 175.088C51.5137 175.168 51.6847 175.244 51.8577 175.315C52.0306 175.387 52.205 175.454 52.3814 175.517C52.5573 175.58 52.7351 175.639 52.9139 175.693C53.0931 175.748 53.2734 175.798 53.4546 175.843C53.6363 175.888 53.819 175.929 54.0021 175.966C54.1858 176.003 54.3699 176.034 54.555 176.062C54.7401 176.09 54.9257 176.112 55.1117 176.13C55.2983 176.149 55.4849 176.162 55.6714 176.172C55.8585 176.181 56.0455 176.186 56.2325 176.186H153.401C153.589 176.186 153.776 176.181 153.963 176.172C154.149 176.162 154.336 176.149 154.522 176.13C154.708 176.112 154.894 176.09 155.079 176.062C155.264 176.034 155.448 176.003 155.632 175.966C155.815 175.929 155.998 175.888 156.179 175.843C156.361 175.798 156.541 175.748 156.72 175.693C156.899 175.639 157.077 175.58 157.253 175.517C157.429 175.454 157.603 175.387 157.776 175.315C157.949 175.244 158.12 175.168 158.289 175.088C158.458 175.008 158.626 174.924 158.79 174.836C158.955 174.747 159.118 174.655 159.279 174.559C159.439 174.463 159.597 174.362 159.753 174.258C159.908 174.155 160.061 174.047 160.211 173.935C160.361 173.824 160.509 173.709 160.654 173.59C160.798 173.471 160.94 173.35 161.079 173.224C161.217 173.098 161.353 172.969 161.485 172.836C161.617 172.704 161.746 172.569 161.872 172.43C161.997 172.291 162.12 172.15 162.238 172.005C162.357 171.86 162.472 171.713 162.584 171.563C162.695 171.413 162.803 171.259 162.907 171.104C163.011 170.949 163.111 170.79 163.207 170.63C163.303 170.47 163.395 170.306 163.483 170.142C163.572 169.976 163.656 169.809 163.735 169.64C163.816 169.471 163.891 169.3 163.963 169.127C164.035 168.954 164.102 168.78 164.165 168.603C164.228 168.427 164.286 168.25 164.341 168.071C164.395 167.892 164.445 167.711 164.49 167.53C164.536 167.348 164.577 167.166 164.613 166.982C164.65 166.799 164.682 166.614 164.71 166.429C164.737 166.244 164.76 166.058 164.778 165.872C164.797 165.686 164.81 165.5 164.819 165.312C164.829 165.125 164.833 164.938 164.833 164.751V158.683C44.801 151.285 44.801 27.541 44.801 27.541Z" fill="#006BC0"/>
<mask id="mask2_201_85" style="mask-type:luminance" maskUnits="userSpaceOnUse" x="139" y="38" width="32" height="7">
<path d="M139.042 38.9268H170.576V44.7722H139.042V38.9268Z" fill="white"/>
</mask>
<g mask="url(#mask2_201_85)">
<path d="M139.114 38.9746H170.551V44.6918H139.114V38.9746Z" fill="#005599"/>
</g>
<mask id="mask3_201_85" style="mask-type:luminance" maskUnits="userSpaceOnUse" x="16" y="13" width="104" height="47">
<path d="M16.1968 13.1826H119.14V59.0758H16.1968V13.1826Z" fill="white"/>
</mask>
<g mask="url(#mask3_201_85)">
<path d="M16.2212 13.2471H119.106V58.9838H16.2212V13.2471Z" fill="#006BC0"/>
</g>
<path d="M39.0847 58.9844H113.391V67.5602H39.0847V58.9844Z" fill="#005599"/>
<path d="M84.8117 150.458H81.9536C81.7199 150.457 81.4862 150.452 81.2526 150.44C81.0194 150.428 80.7862 150.411 80.5535 150.387C80.3207 150.364 80.089 150.335 79.8577 150.301C79.6265 150.266 79.3962 150.226 79.1669 150.18C78.9376 150.134 78.7097 150.083 78.4829 150.026C78.2565 149.969 78.031 149.906 77.8076 149.838C77.5836 149.77 77.3621 149.697 77.142 149.618C76.9219 149.539 76.7038 149.455 76.488 149.365C76.2719 149.276 76.0581 149.181 75.8472 149.081C75.6359 148.98 75.427 148.875 75.221 148.765C75.015 148.655 74.8115 148.539 74.6108 148.419C74.4107 148.299 74.2129 148.174 74.0186 148.044C73.8243 147.914 73.6333 147.779 73.4458 147.64C73.2578 147.501 73.0737 147.357 72.8929 147.208C72.7122 147.06 72.5354 146.907 72.3619 146.75C72.189 146.593 72.0199 146.432 71.8542 146.267C71.689 146.101 71.5278 145.932 71.3708 145.758C71.2139 145.585 71.0614 145.409 70.9127 145.228C70.7645 145.047 70.6207 144.863 70.4813 144.675C70.3418 144.487 70.2073 144.296 70.0776 144.102C69.9474 143.907 69.8225 143.71 69.702 143.509C69.582 143.309 69.4669 143.105 69.3566 142.899C69.2458 142.693 69.1409 142.484 69.0408 142.273C68.9407 142.062 68.846 141.848 68.7561 141.632C68.6667 141.416 68.5827 141.198 68.5035 140.978C68.4248 140.758 68.3514 140.536 68.2834 140.312C68.2149 140.088 68.1527 139.863 68.0959 139.637C68.0385 139.41 67.987 139.182 67.9414 138.952C67.8957 138.723 67.8554 138.493 67.8209 138.262C67.7864 138.03 67.7577 137.798 67.7344 137.565C67.7111 137.333 67.6936 137.1 67.6819 136.866C67.6703 136.633 67.6644 136.399 67.664 136.165V127.589C67.541 127.215 66.9323 126.866 66.4921 126.609C65.1275 125.876 63.8891 124.971 62.777 123.893C62.711 123.827 62.6483 123.758 62.5885 123.685C62.5293 123.613 62.4739 123.538 62.4219 123.46C62.3699 123.382 62.3218 123.302 62.2776 123.219C62.2334 123.137 62.1935 123.052 62.1576 122.966C62.1221 122.879 62.0906 122.791 62.0633 122.702C62.0361 122.613 62.0133 122.522 61.9953 122.43C61.9769 122.338 61.9633 122.246 61.954 122.153C61.9448 122.059 61.9404 121.966 61.9404 121.872C61.9404 121.779 61.9448 121.685 61.954 121.592C61.9633 121.499 61.9769 121.406 61.9953 121.315C62.0133 121.223 62.0361 121.132 62.0633 121.043C62.0906 120.953 62.1221 120.865 62.1576 120.779C62.1935 120.692 62.2334 120.608 62.2776 120.525C62.3218 120.442 62.3699 120.362 62.4219 120.285C62.4739 120.207 62.5293 120.132 62.5885 120.059C62.6483 119.987 62.711 119.918 62.777 119.851C63.8891 118.774 65.1275 117.868 66.4921 117.136C66.908 116.918 67.2986 116.661 67.664 116.367V107.58C67.6644 107.346 67.6703 107.112 67.6819 106.879C67.6936 106.645 67.7111 106.412 67.7344 106.179C67.7577 105.946 67.7864 105.715 67.8209 105.483C67.8554 105.252 67.8957 105.022 67.9414 104.792C67.987 104.563 68.0385 104.335 68.0959 104.108C68.1527 103.882 68.2149 103.656 68.2834 103.433C68.3514 103.209 68.4248 102.987 68.5035 102.767C68.5827 102.546 68.6667 102.329 68.7561 102.113C68.846 101.896 68.9407 101.683 69.0408 101.472C69.1409 101.261 69.2463 101.052 69.3566 100.846C69.4669 100.639 69.582 100.436 69.702 100.235C69.8225 100.035 69.9474 99.8375 70.0776 99.6432C70.2073 99.4489 70.3418 99.2574 70.4813 99.0699C70.6207 98.8819 70.7645 98.6978 70.9127 98.517C71.0614 98.3363 71.2139 98.1595 71.3708 97.986C71.5278 97.8126 71.689 97.6435 71.8542 97.4783C72.0199 97.3127 72.189 97.1514 72.3619 96.9945C72.5354 96.8375 72.7122 96.685 72.8929 96.5363C73.0737 96.3881 73.2578 96.2443 73.4458 96.1049C73.6333 95.9655 73.8243 95.8309 74.0186 95.7007C74.2129 95.571 74.4107 95.4456 74.6108 95.3256C74.8115 95.2052 75.015 95.09 75.221 94.9797C75.427 94.8694 75.6359 94.764 75.8472 94.6639C76.0581 94.5639 76.2719 94.4691 76.488 94.3792C76.7038 94.2899 76.9219 94.2053 77.142 94.1266C77.3621 94.0479 77.5836 93.9741 77.8076 93.9061C78.031 93.838 78.2565 93.7754 78.4829 93.7185C78.7097 93.6617 78.9376 93.6102 79.1669 93.5645C79.3962 93.5184 79.6265 93.4785 79.8577 93.444C80.089 93.4091 80.3207 93.3804 80.5535 93.3571C80.7862 93.3342 81.0194 93.3167 81.2526 93.3051C81.4862 93.2929 81.7199 93.2871 81.9536 93.2871H84.8117V99.0038H81.9536C81.8132 99.0038 81.6728 99.0072 81.5329 99.0145C81.393 99.0213 81.253 99.0315 81.1131 99.0451C80.9737 99.0592 80.8343 99.0762 80.6958 99.0966C80.5569 99.1175 80.4184 99.1413 80.2809 99.1685C80.1434 99.1962 80.0064 99.2268 79.8704 99.2608C79.7343 99.2949 79.5988 99.3323 79.4647 99.3731C79.3306 99.4139 79.1975 99.4581 79.0654 99.5052C78.9332 99.5523 78.802 99.6029 78.6723 99.6568C78.5431 99.7102 78.4148 99.7671 78.288 99.8273C78.1612 99.8876 78.0359 99.9502 77.912 100.017C77.7881 100.083 77.6662 100.152 77.5457 100.224C77.4257 100.296 77.3072 100.371 77.1901 100.449C77.0735 100.527 76.9588 100.608 76.8461 100.692C76.7334 100.775 76.6231 100.862 76.5143 100.951C76.4059 101.039 76.2995 101.131 76.1956 101.226C76.0916 101.32 75.9901 101.416 75.891 101.516C75.7919 101.615 75.6952 101.717 75.6009 101.821C75.5067 101.925 75.4149 102.031 75.3259 102.139C75.237 102.248 75.1506 102.358 75.067 102.471C74.9834 102.584 74.9028 102.699 74.8246 102.815C74.7468 102.932 74.6715 103.05 74.5996 103.171C74.5277 103.291 74.4583 103.413 74.3922 103.537C74.3261 103.661 74.263 103.786 74.2032 103.913C74.143 104.04 74.0861 104.168 74.0327 104.298C73.9787 104.428 73.9282 104.558 73.8811 104.69C73.834 104.823 73.7898 104.956 73.749 105.09C73.7081 105.224 73.6707 105.36 73.6367 105.496C73.6027 105.632 73.5721 105.769 73.5444 105.906C73.5172 106.044 73.4934 106.182 73.4725 106.321C73.4521 106.46 73.4351 106.599 73.421 106.739C73.4074 106.879 73.3972 107.019 73.3904 107.159C73.3831 107.299 73.3797 107.439 73.3797 107.58V116.155C73.3807 116.455 73.3603 116.753 73.3185 117.049C73.2767 117.346 73.2141 117.638 73.1305 117.925C73.0464 118.213 72.943 118.493 72.8191 118.766C72.6952 119.038 72.5524 119.301 72.3911 119.553C72.2298 119.805 72.051 120.045 71.8552 120.271C71.6594 120.498 71.4481 120.709 71.2222 120.905C70.9958 121.102 70.7572 121.281 70.5051 121.443C70.2534 121.605 69.9911 121.748 69.719 121.872C69.9911 121.997 70.2534 122.14 70.5051 122.302C70.7572 122.464 70.9958 122.643 71.2222 122.84C71.4481 123.036 71.6594 123.247 71.8552 123.474C72.051 123.7 72.2298 123.939 72.3911 124.192C72.5524 124.444 72.6952 124.706 72.8191 124.979C72.943 125.252 73.0464 125.531 73.1305 125.819C73.2141 126.107 73.2767 126.399 73.3185 126.696C73.3603 126.992 73.3807 127.29 73.3797 127.589V136.165C73.3797 136.305 73.3831 136.446 73.3904 136.586C73.3972 136.726 73.4074 136.866 73.421 137.006C73.4351 137.145 73.4521 137.285 73.4725 137.424C73.4934 137.562 73.5172 137.7 73.5444 137.838C73.5721 137.976 73.6027 138.112 73.6367 138.249C73.6707 138.385 73.7081 138.52 73.749 138.655C73.7898 138.789 73.834 138.922 73.8811 139.054C73.9282 139.186 73.9787 139.317 74.0327 139.447C74.0861 139.576 74.143 139.705 74.2032 139.832C74.263 139.959 74.3261 140.084 74.3922 140.207C74.4583 140.331 74.5277 140.454 74.5996 140.574C74.6715 140.694 74.7468 140.813 74.8246 140.929C74.9028 141.046 74.9834 141.161 75.067 141.274C75.1506 141.386 75.237 141.497 75.3259 141.606C75.4149 141.714 75.5067 141.82 75.6009 141.924C75.6952 142.028 75.7919 142.13 75.891 142.229C75.9901 142.328 76.0916 142.425 76.1956 142.519C76.2995 142.614 76.4059 142.705 76.5143 142.794C76.6231 142.883 76.7334 142.969 76.8461 143.053C76.9588 143.137 77.0735 143.218 77.1901 143.295C77.3072 143.373 77.4257 143.448 77.5457 143.521C77.6662 143.593 77.7881 143.662 77.912 143.728C78.0359 143.794 78.1612 143.857 78.288 143.917C78.4148 143.977 78.5431 144.034 78.6723 144.088C78.802 144.142 78.9332 144.192 79.0654 144.239C79.1975 144.287 79.3306 144.331 79.4647 144.371C79.5988 144.412 79.7343 144.45 79.8704 144.484C80.0064 144.518 80.1434 144.549 80.2809 144.576C80.4184 144.603 80.5569 144.627 80.6958 144.648C80.8343 144.669 80.9737 144.686 81.1131 144.699C81.253 144.713 81.393 144.724 81.5329 144.73C81.6728 144.737 81.8132 144.741 81.9536 144.741H84.8117V150.458Z" fill="white"/>
<path d="M127.68 150.458H124.822V144.741H127.68C127.821 144.741 127.961 144.737 128.101 144.73C128.241 144.724 128.381 144.713 128.521 144.699C128.66 144.686 128.8 144.669 128.938 144.648C129.077 144.627 129.216 144.603 129.353 144.576C129.491 144.549 129.628 144.518 129.764 144.484C129.9 144.45 130.035 144.412 130.169 144.371C130.303 144.331 130.436 144.287 130.569 144.239C130.701 144.192 130.832 144.142 130.962 144.088C131.091 144.034 131.219 143.977 131.346 143.917C131.473 143.857 131.598 143.794 131.722 143.728C131.846 143.662 131.968 143.593 132.088 143.521C132.208 143.448 132.327 143.373 132.444 143.295C132.561 143.218 132.675 143.137 132.788 143.053C132.901 142.969 133.011 142.883 133.12 142.794C133.228 142.705 133.334 142.614 133.438 142.519C133.542 142.425 133.644 142.328 133.743 142.229C133.842 142.13 133.939 142.028 134.033 141.924C134.127 141.82 134.219 141.714 134.308 141.606C134.397 141.497 134.483 141.386 134.567 141.274C134.651 141.161 134.731 141.046 134.809 140.929C134.887 140.813 134.962 140.694 135.034 140.574C135.106 140.454 135.176 140.331 135.242 140.207C135.308 140.084 135.371 139.959 135.431 139.832C135.491 139.705 135.548 139.576 135.601 139.447C135.655 139.317 135.706 139.186 135.753 139.054C135.8 138.922 135.844 138.789 135.885 138.655C135.926 138.52 135.963 138.385 135.997 138.249C136.031 138.112 136.062 137.976 136.09 137.838C136.117 137.7 136.141 137.562 136.161 137.424C136.182 137.285 136.199 137.145 136.213 137.006C136.227 136.866 136.237 136.726 136.244 136.586C136.251 136.446 136.254 136.305 136.254 136.165V127.589C136.253 127.29 136.274 126.992 136.315 126.696C136.357 126.399 136.42 126.107 136.504 125.819C136.588 125.531 136.691 125.252 136.815 124.979C136.939 124.706 137.082 124.444 137.243 124.192C137.404 123.939 137.583 123.7 137.779 123.474C137.975 123.247 138.186 123.036 138.412 122.84C138.638 122.643 138.877 122.464 139.129 122.302C139.381 122.14 139.643 121.997 139.915 121.872C139.643 121.748 139.381 121.605 139.129 121.443C138.877 121.281 138.638 121.102 138.412 120.905C138.186 120.709 137.975 120.498 137.779 120.271C137.583 120.045 137.404 119.805 137.243 119.553C137.082 119.301 136.939 119.038 136.815 118.766C136.691 118.493 136.588 118.213 136.504 117.925C136.42 117.638 136.357 117.346 136.315 117.049C136.274 116.753 136.253 116.455 136.254 116.155V107.58C136.254 107.439 136.251 107.299 136.244 107.159C136.237 107.019 136.227 106.879 136.213 106.739C136.199 106.599 136.182 106.46 136.161 106.321C136.141 106.182 136.117 106.044 136.09 105.906C136.062 105.769 136.031 105.632 135.997 105.496C135.963 105.36 135.926 105.224 135.885 105.09C135.844 104.956 135.8 104.823 135.753 104.69C135.706 104.558 135.655 104.428 135.601 104.298C135.548 104.168 135.491 104.04 135.431 103.913C135.371 103.786 135.308 103.661 135.242 103.537C135.176 103.413 135.106 103.291 135.034 103.171C134.962 103.05 134.887 102.932 134.809 102.815C134.731 102.699 134.651 102.584 134.567 102.471C134.483 102.358 134.397 102.248 134.308 102.139C134.219 102.031 134.127 101.925 134.033 101.821C133.939 101.717 133.842 101.615 133.743 101.516C133.644 101.416 133.542 101.32 133.438 101.226C133.334 101.131 133.228 101.039 133.12 100.951C133.011 100.862 132.901 100.775 132.788 100.692C132.675 100.608 132.561 100.527 132.444 100.449C132.327 100.371 132.208 100.296 132.088 100.224C131.968 100.152 131.846 100.083 131.722 100.017C131.598 99.9502 131.473 99.8871 131.346 99.8273C131.219 99.7671 131.091 99.7102 130.961 99.6568C130.832 99.6029 130.701 99.5523 130.569 99.5052C130.436 99.4581 130.303 99.4139 130.169 99.3731C130.035 99.3323 129.9 99.2949 129.764 99.2608C129.628 99.2268 129.491 99.1962 129.353 99.1685C129.216 99.1413 129.077 99.1175 128.938 99.0966C128.8 99.0762 128.66 99.0592 128.521 99.0451C128.381 99.0315 128.241 99.0213 128.101 99.0145C127.961 99.0072 127.821 99.0038 127.68 99.0038H124.822V93.2871H127.68C127.914 93.2871 128.148 93.2929 128.381 93.3051C128.615 93.3167 128.848 93.3342 129.081 93.3571C129.313 93.3804 129.545 93.4091 129.776 93.444C130.008 93.4785 130.238 93.5184 130.467 93.5645C130.696 93.6102 130.924 93.6617 131.151 93.7185C131.378 93.7754 131.603 93.838 131.826 93.9061C132.05 93.9741 132.272 94.0479 132.492 94.1266C132.712 94.2053 132.93 94.2899 133.146 94.3792C133.362 94.4691 133.576 94.5639 133.787 94.6639C133.998 94.764 134.207 94.8694 134.413 94.9797C134.619 95.09 134.823 95.2052 135.023 95.3256C135.223 95.4456 135.421 95.571 135.615 95.7007C135.81 95.8309 136.001 95.9655 136.188 96.1049C136.376 96.2443 136.56 96.3881 136.741 96.5363C136.922 96.685 137.099 96.8375 137.272 96.9945C137.445 97.1514 137.614 97.3127 137.78 97.4783C137.945 97.6435 138.106 97.8126 138.263 97.986C138.42 98.1595 138.573 98.3363 138.721 98.517C138.869 98.6978 139.013 98.8819 139.153 99.0699C139.292 99.2574 139.427 99.4489 139.556 99.6432C139.687 99.8375 139.812 100.035 139.932 100.235C140.052 100.436 140.167 100.639 140.277 100.846C140.388 101.052 140.493 101.261 140.593 101.472C140.693 101.683 140.788 101.896 140.878 102.113C140.967 102.329 141.051 102.546 141.131 102.767C141.209 102.987 141.283 103.209 141.351 103.433C141.419 103.656 141.481 103.882 141.538 104.108C141.595 104.335 141.647 104.563 141.693 104.792C141.738 105.022 141.779 105.252 141.813 105.483C141.848 105.715 141.876 105.946 141.9 106.179C141.923 106.412 141.94 106.645 141.952 106.879C141.964 107.112 141.97 107.346 141.97 107.58V116.155C142.093 116.53 142.702 116.878 143.142 117.136C144.507 117.868 145.745 118.774 146.857 119.851C146.923 119.918 146.986 119.987 147.045 120.059C147.105 120.132 147.16 120.207 147.212 120.285C147.264 120.362 147.312 120.442 147.356 120.525C147.401 120.608 147.44 120.692 147.476 120.779C147.512 120.865 147.543 120.953 147.571 121.043C147.598 121.132 147.621 121.223 147.639 121.315C147.657 121.407 147.671 121.499 147.68 121.592C147.689 121.685 147.694 121.779 147.694 121.872C147.694 121.966 147.689 122.059 147.68 122.153C147.671 122.246 147.657 122.338 147.639 122.43C147.621 122.522 147.598 122.613 147.571 122.702C147.543 122.791 147.512 122.879 147.476 122.966C147.44 123.052 147.401 123.137 147.356 123.219C147.312 123.302 147.264 123.382 147.212 123.46C147.16 123.538 147.105 123.613 147.045 123.685C146.986 123.758 146.923 123.827 146.857 123.893C145.745 124.971 144.507 125.876 143.142 126.609C142.723 126.827 142.33 127.083 141.961 127.378L141.97 136.165C141.97 136.399 141.964 136.633 141.952 136.866C141.94 137.1 141.923 137.333 141.9 137.565C141.876 137.798 141.848 138.03 141.813 138.262C141.779 138.493 141.738 138.723 141.693 138.952C141.647 139.182 141.595 139.41 141.538 139.637C141.481 139.863 141.419 140.088 141.351 140.312C141.283 140.536 141.209 140.758 141.131 140.978C141.051 141.198 140.967 141.416 140.878 141.632C140.788 141.848 140.693 142.062 140.593 142.273C140.493 142.484 140.388 142.693 140.277 142.899C140.167 143.105 140.052 143.309 139.932 143.509C139.812 143.71 139.687 143.907 139.556 144.102C139.427 144.296 139.292 144.487 139.153 144.675C139.013 144.863 138.869 145.047 138.721 145.228C138.573 145.409 138.42 145.585 138.263 145.758C138.106 145.932 137.945 146.101 137.78 146.267C137.614 146.432 137.445 146.593 137.272 146.75C137.099 146.907 136.922 147.06 136.741 147.208C136.56 147.357 136.376 147.501 136.188 147.64C136.001 147.779 135.81 147.914 135.615 148.044C135.421 148.174 135.223 148.299 135.023 148.419C134.823 148.539 134.619 148.655 134.413 148.765C134.207 148.875 133.998 148.98 133.787 149.081C133.576 149.181 133.362 149.276 133.146 149.365C132.93 149.455 132.712 149.539 132.492 149.618C132.272 149.697 132.05 149.77 131.826 149.838C131.603 149.906 131.378 149.969 131.151 150.026C130.924 150.083 130.696 150.134 130.467 150.18C130.238 150.226 130.008 150.266 129.776 150.301C129.545 150.335 129.313 150.364 129.081 150.387C128.848 150.411 128.615 150.428 128.381 150.44C128.148 150.452 127.914 150.457 127.68 150.458Z" fill="white"/>
<path d="M136.254 147.601C135.922 148.043 135.566 148.464 135.185 148.864C134.804 149.265 134.401 149.642 133.977 149.996C133.552 150.35 133.109 150.678 132.646 150.981C132.184 151.284 131.706 151.559 131.211 151.806C130.717 152.053 130.21 152.271 129.69 152.459C129.171 152.648 128.643 152.806 128.105 152.933C127.567 153.06 127.023 153.156 126.474 153.22C125.926 153.285 125.375 153.317 124.822 153.318H121.964V147.601H124.822V150.459H127.68C128.448 150.462 129.212 150.403 129.971 150.281C130.729 150.16 131.473 149.977 132.202 149.734C132.93 149.491 133.635 149.191 134.315 148.833C134.995 148.475 135.641 148.064 136.254 147.601Z" fill="#005599"/>
<path d="M136.854 124.846C136.647 125.273 136.493 125.719 136.391 126.182C136.29 126.646 136.244 127.115 136.254 127.59V136.166C136.253 136.532 136.228 136.896 136.181 137.259C136.133 137.622 136.063 137.98 135.97 138.334C135.877 138.688 135.761 139.034 135.624 139.373C135.487 139.713 135.328 140.041 135.148 140.361C134.969 140.679 134.77 140.986 134.552 141.279C134.334 141.573 134.098 141.851 133.843 142.115C133.589 142.378 133.32 142.625 133.035 142.853C132.749 143.083 132.451 143.293 132.139 143.484C132.55 142.813 132.863 142.098 133.076 141.341C133.29 140.584 133.396 139.811 133.396 139.024V130.449C133.393 130.159 133.411 129.87 133.449 129.583C133.486 129.295 133.544 129.012 133.622 128.733C133.7 128.454 133.797 128.181 133.913 127.916C134.03 127.65 134.164 127.394 134.316 127.148C134.468 126.901 134.637 126.666 134.822 126.443C135.007 126.221 135.207 126.012 135.422 125.817C135.637 125.622 135.864 125.444 136.104 125.281C136.344 125.118 136.594 124.973 136.854 124.846Z" fill="#005599"/>
<path d="M144.656 125.674C144.531 126.093 144.312 126.455 143.999 126.76C143.373 127.383 142.697 127.945 141.97 128.446V127.389C142.332 127.088 142.723 126.831 143.142 126.617C143.667 126.335 144.172 126.021 144.656 125.674Z" fill="#005599"/>
<path d="M139.912 121.873C139.296 122.192 138.735 122.589 138.23 123.065C137.725 123.541 137.295 124.077 136.94 124.674C136.675 124.546 136.42 124.401 136.176 124.238C135.931 124.075 135.7 123.895 135.481 123.699C135.261 123.503 135.057 123.293 134.867 123.068C134.678 122.843 134.506 122.606 134.35 122.357C134.194 122.108 134.056 121.849 133.936 121.58C133.817 121.311 133.717 121.036 133.636 120.753C133.555 120.47 133.495 120.183 133.455 119.892C133.414 119.601 133.395 119.308 133.396 119.014V110.439C133.395 110.298 133.392 110.158 133.384 110.018C133.377 109.878 133.366 109.738 133.352 109.599C133.338 109.459 133.321 109.32 133.3 109.181C133.279 109.043 133.255 108.905 133.227 108.767C133.199 108.63 133.169 108.493 133.134 108.357C133.1 108.221 133.062 108.086 133.021 107.952C132.98 107.818 132.936 107.685 132.889 107.553C132.841 107.421 132.791 107.29 132.737 107.161C132.683 107.031 132.626 106.903 132.566 106.776C132.505 106.65 132.442 106.525 132.376 106.401C132.31 106.277 132.241 106.155 132.168 106.035C132.096 105.915 132.021 105.796 131.943 105.68C131.865 105.564 131.784 105.449 131.701 105.336C131.617 105.224 131.531 105.113 131.442 105.005C131.353 104.897 131.262 104.79 131.167 104.687C131.073 104.583 130.976 104.481 130.877 104.382C130.778 104.283 130.677 104.186 130.573 104.092C130.469 103.998 130.363 103.906 130.255 103.817C130.146 103.728 130.036 103.642 129.923 103.558C129.81 103.475 129.696 103.394 129.58 103.316C129.463 103.238 129.345 103.163 129.225 103.09C129.104 103.019 128.982 102.949 128.859 102.883C128.735 102.817 128.61 102.754 128.484 102.693C128.357 102.633 128.229 102.576 128.099 102.522C127.97 102.469 127.839 102.418 127.707 102.37C127.575 102.323 127.442 102.279 127.308 102.238C127.174 102.197 127.039 102.159 126.903 102.125C126.767 102.091 126.631 102.059 126.493 102.032C126.356 102.004 126.218 101.98 126.079 101.959C125.94 101.938 125.801 101.921 125.662 101.906C125.522 101.892 125.383 101.882 125.243 101.874C125.102 101.867 124.962 101.863 124.822 101.863H121.964V96.1455H124.822V99.0041H127.68C127.821 99.0046 127.96 99.0085 128.1 99.0158C128.24 99.0231 128.38 99.0338 128.52 99.0478C128.659 99.0619 128.798 99.0794 128.937 99.1003C129.075 99.1212 129.213 99.1455 129.351 99.1732C129.488 99.2009 129.625 99.232 129.761 99.2665C129.897 99.3005 130.032 99.3384 130.166 99.3792C130.3 99.42 130.433 99.4642 130.565 99.5118C130.697 99.5594 130.828 99.6099 130.957 99.6639C131.087 99.7178 131.215 99.7746 131.341 99.8349C131.468 99.8951 131.593 99.9583 131.717 100.024C131.84 100.09 131.962 100.16 132.082 100.232C132.203 100.304 132.321 100.379 132.437 100.457C132.554 100.535 132.669 100.616 132.781 100.7C132.894 100.783 133.004 100.87 133.112 100.959C133.22 101.048 133.327 101.139 133.431 101.234C133.534 101.328 133.636 101.425 133.735 101.524C133.834 101.623 133.931 101.724 134.025 101.828C134.119 101.932 134.211 102.038 134.3 102.146C134.389 102.255 134.475 102.365 134.559 102.478C134.643 102.59 134.723 102.705 134.801 102.822C134.879 102.938 134.954 103.056 135.026 103.177C135.099 103.297 135.168 103.419 135.234 103.542C135.3 103.666 135.363 103.791 135.423 103.918C135.483 104.045 135.54 104.173 135.594 104.302C135.648 104.432 135.699 104.562 135.746 104.694C135.794 104.826 135.838 104.959 135.879 105.093C135.92 105.228 135.958 105.363 135.992 105.499C136.026 105.635 136.057 105.771 136.085 105.909C136.113 106.046 136.137 106.184 136.158 106.323C136.179 106.462 136.196 106.601 136.21 106.74C136.224 106.88 136.235 107.019 136.242 107.16C136.25 107.3 136.254 107.44 136.254 107.58V116.155C136.253 116.455 136.274 116.753 136.316 117.049C136.357 117.346 136.42 117.638 136.504 117.925C136.588 118.212 136.691 118.492 136.815 118.765C136.939 119.037 137.081 119.3 137.243 119.552C137.404 119.804 137.583 120.043 137.778 120.27C137.974 120.497 138.185 120.708 138.411 120.904C138.636 121.101 138.875 121.28 139.127 121.442C139.378 121.604 139.64 121.748 139.912 121.873Z" fill="#005599"/>
<path d="M81.9536 150.456V153.315H79.0955C78.8618 153.315 78.6281 153.309 78.3944 153.297C78.1607 153.286 77.9275 153.269 77.6948 153.246C77.4621 153.223 77.2304 153.194 76.9991 153.16C76.7674 153.126 76.5371 153.086 76.3078 153.04C76.0785 152.995 75.8506 152.943 75.6237 152.886C75.3969 152.83 75.1714 152.767 74.9475 152.699C74.724 152.631 74.502 152.558 74.2814 152.479C74.0613 152.401 73.8432 152.317 73.6275 152.227C73.4113 152.137 73.1975 152.043 72.9862 151.942C72.7748 151.842 72.5659 151.737 72.3595 151.627C72.1535 151.517 71.9499 151.402 71.7493 151.281C71.5486 151.161 71.3514 151.036 71.1566 150.906C70.9622 150.776 70.7713 150.641 70.5833 150.502C70.3957 150.363 70.2111 150.219 70.0304 150.071C69.8497 149.922 69.6728 149.769 69.4994 149.612C69.326 149.455 69.1569 149.294 68.9912 149.129C68.826 148.963 68.6647 148.794 68.5078 148.62C68.3509 148.447 68.1979 148.27 68.0497 148.089C67.9015 147.909 67.7577 147.724 67.6183 147.536C67.4788 147.348 67.3443 147.157 67.2141 146.963C67.0843 146.768 66.9595 146.571 66.839 146.37C66.719 146.169 66.6034 145.966 66.4936 145.76C66.3833 145.553 66.2779 145.344 66.1778 145.133C66.0782 144.922 65.9835 144.708 65.8936 144.492C65.8042 144.276 65.7201 144.057 65.6414 143.837C65.5627 143.617 65.4894 143.395 65.4214 143.171C65.3533 142.947 65.2912 142.722 65.2343 142.495C65.1775 142.268 65.1265 142.04 65.0808 141.811C65.0351 141.581 64.9953 141.35 64.9608 141.119C64.9263 140.888 64.8976 140.656 64.8748 140.423C64.852 140.19 64.835 139.957 64.8233 139.723C64.8116 139.49 64.8063 139.256 64.8063 139.022V130.447C64.6916 130.075 64.063 129.732 63.6345 129.474C62.2747 128.735 61.0358 127.83 59.9189 126.759C59.8528 126.692 59.7901 126.623 59.7309 126.55C59.6716 126.477 59.6157 126.402 59.5642 126.323C59.5122 126.245 59.4641 126.164 59.4199 126.081C59.3762 125.999 59.3359 125.914 59.3004 125.827C59.2645 125.74 59.2329 125.652 59.2062 125.562C59.179 125.472 59.1561 125.381 59.1382 125.289C59.1197 125.197 59.1061 125.104 59.0969 125.011C59.0876 124.917 59.0833 124.823 59.0833 124.729C59.0833 124.636 59.0876 124.542 59.0969 124.449C59.1061 124.355 59.1197 124.262 59.1382 124.17C59.1561 124.078 59.179 123.987 59.2062 123.897C59.2329 123.807 59.2645 123.719 59.3004 123.632C59.3359 123.545 59.3762 123.46 59.4199 123.377C59.4641 123.294 59.5122 123.214 59.5642 123.135C59.6157 123.057 59.6716 122.982 59.7309 122.909C59.7901 122.836 59.8528 122.767 59.9189 122.7C60.5995 122.043 61.3326 121.452 62.1197 120.928C62.0735 121.054 62.0366 121.182 62.0084 121.313C61.9807 121.445 61.9623 121.577 61.953 121.711C61.9443 121.845 61.9448 121.979 61.955 122.113C61.9652 122.247 61.9846 122.379 62.0133 122.51C62.0424 122.641 62.0808 122.77 62.1279 122.895C62.1751 123.021 62.2309 123.142 62.2955 123.26C62.3602 123.378 62.433 123.49 62.5137 123.597C62.5943 123.705 62.6818 123.806 62.777 123.901C63.8939 124.972 65.1323 125.877 66.4921 126.616C66.9211 126.873 67.5498 127.216 67.6639 127.588V136.164C67.6639 136.397 67.6698 136.631 67.6814 136.865C67.6926 137.099 67.7101 137.332 67.7329 137.564C67.7558 137.797 67.7844 138.029 67.8184 138.261C67.8529 138.492 67.8928 138.723 67.9384 138.952C67.9841 139.181 68.0356 139.41 68.0924 139.636C68.1493 139.863 68.2115 140.089 68.2795 140.313C68.347 140.536 68.4204 140.758 68.4991 140.979C68.5783 141.199 68.6623 141.417 68.7517 141.633C68.8411 141.849 68.9358 142.063 69.0359 142.275C69.136 142.486 69.2409 142.695 69.3512 142.901C69.4615 143.107 69.5766 143.311 69.6971 143.511C69.8171 143.712 69.9425 143.91 70.0722 144.104C70.2019 144.298 70.337 144.49 70.4759 144.678C70.6153 144.865 70.7591 145.05 70.9078 145.231C71.056 145.411 71.2085 145.589 71.3655 145.762C71.5229 145.935 71.6842 146.105 71.8493 146.27C72.0145 146.436 72.1841 146.597 72.357 146.754C72.5305 146.911 72.7078 147.064 72.8885 147.212C73.0693 147.36 73.2534 147.504 73.4414 147.643C73.6289 147.783 73.8203 147.917 74.0147 148.048C74.209 148.177 74.4067 148.303 74.6074 148.423C74.808 148.543 75.0111 148.658 75.2176 148.769C75.4236 148.879 75.6325 148.984 75.8438 149.084C76.0551 149.184 76.2689 149.279 76.4851 149.368C76.7013 149.458 76.9194 149.542 77.1395 149.621C77.3596 149.699 77.5816 149.773 77.8056 149.841C78.0291 149.909 78.2545 149.971 78.4814 150.028C78.7083 150.085 78.9366 150.136 79.1659 150.182C79.3952 150.228 79.6255 150.267 79.8567 150.301C80.088 150.336 80.3202 150.365 80.5529 150.387C80.7857 150.41 81.0188 150.428 81.2525 150.439C81.4862 150.451 81.7199 150.456 81.9536 150.456Z" fill="#005599"/>
<path d="M70.5219 99.0049C70.0584 99.618 69.6474 100.265 69.2899 100.944C68.9318 101.624 68.6316 102.329 68.3882 103.058C68.1452 103.787 67.9631 104.531 67.8416 105.29C67.7201 106.048 67.6609 106.812 67.6638 107.581V116.356C67.3018 116.657 66.9112 116.914 66.492 117.128C66.0061 117.414 65.4348 117.757 64.8062 118.157V110.439C64.8066 109.886 64.8387 109.336 64.9033 108.787C64.9674 108.238 65.0632 107.694 65.1904 107.156C65.3177 106.618 65.4756 106.09 65.6641 105.57C65.8526 105.05 66.0703 104.543 66.3176 104.049C66.5648 103.554 66.8393 103.076 67.142 102.613C67.4447 102.151 67.7726 101.707 68.1268 101.282C68.4805 100.858 68.858 100.456 69.2583 100.075C69.6586 99.6938 70.0798 99.3372 70.5219 99.0049Z" fill="#005599"/>
<path d="M81.9535 99.0049V101.863H79.0954C78.3089 101.863 77.5369 101.97 76.7795 102.184C76.0221 102.397 75.3079 102.71 74.6375 103.121C74.8284 102.809 75.0383 102.511 75.2671 102.225C75.4964 101.94 75.7422 101.67 76.006 101.416C76.2693 101.162 76.5477 100.926 76.8412 100.707C77.1346 100.489 77.4407 100.29 77.7599 100.111C78.0786 99.9314 78.4075 99.773 78.7466 99.6355C79.0857 99.498 79.4321 99.3824 79.7858 99.2891C80.1394 99.1963 80.498 99.1259 80.8604 99.0782C81.2233 99.0306 81.5877 99.0063 81.9535 99.0049Z" fill="#005599"/>
<path d="M64.8063 50.4084C55.7636 50.4084 53.3743 44.8 53.3743 41.833H56.2324L59.09 41.7499C59.1245 42.2416 59.5477 44.6916 64.8063 44.6916C64.8996 44.6916 64.9928 44.6868 65.0861 44.6775C65.1794 44.6683 65.2717 44.6547 65.3635 44.6367C65.4553 44.6183 65.5462 44.5954 65.6356 44.5682C65.7255 44.541 65.8134 44.5099 65.8999 44.474C65.9864 44.438 66.0709 44.3982 66.1535 44.354C66.2356 44.3098 66.3162 44.2617 66.394 44.2097C66.4717 44.1577 66.5465 44.1018 66.6189 44.0426C66.6913 43.9833 66.7608 43.9206 66.8268 43.8541C66.8929 43.788 66.9561 43.7185 67.0153 43.6466C67.0746 43.5742 67.1305 43.4989 67.1825 43.4212C67.2344 43.3435 67.2825 43.2628 67.3263 43.1802C67.3705 43.0981 67.4108 43.0136 67.4463 42.9266C67.4822 42.8401 67.5138 42.7522 67.541 42.6628C67.5682 42.5729 67.5906 42.4826 67.609 42.3907C67.6275 42.2989 67.6411 42.2061 67.6503 42.1133C67.6595 42.0201 67.6639 41.9268 67.6639 41.833C67.6639 41.7393 67.6595 41.646 67.6503 41.5527C67.6411 41.4594 67.6275 41.3671 67.609 41.2753C67.5906 41.1835 67.5682 41.0926 67.541 41.0032C67.5138 40.9133 67.4822 40.8254 67.4463 40.7389C67.4108 40.6525 67.3705 40.5679 67.3263 40.4853C67.2825 40.4027 67.2344 40.3226 67.1825 40.2449C67.1305 40.1671 67.0746 40.0918 67.0153 40.0194C66.9561 39.947 66.8929 39.878 66.8268 39.8115C66.7608 39.7454 66.6913 39.6827 66.6189 39.6235C66.5465 39.5637 66.4717 39.5083 66.394 39.4564C66.3162 39.4044 66.2356 39.3563 66.1535 39.3121C66.0709 39.2679 65.9864 39.228 65.8999 39.1921C65.8134 39.1561 65.7255 39.1245 65.6356 39.0973C65.5462 39.0701 65.4553 39.0478 65.3635 39.0293C65.2717 39.0108 65.1794 38.9972 65.0861 38.988C64.9928 38.9788 64.8996 38.9744 64.8063 38.9744H61.9482C61.8077 38.9744 61.6678 38.971 61.5274 38.9642C61.3875 38.9574 61.2476 38.9467 61.1077 38.9331C60.9682 38.9195 60.8288 38.902 60.6903 38.8816C60.5514 38.8612 60.4129 38.8369 60.2754 38.8097C60.138 38.782 60.001 38.7514 59.8649 38.7174C59.7289 38.6834 59.5933 38.646 59.4593 38.6052C59.3252 38.5644 59.1921 38.5202 59.0599 38.473C58.9278 38.4259 58.7966 38.3754 58.6669 38.3215C58.5376 38.268 58.4094 38.2112 58.2826 38.1509C58.1558 38.0912 58.0304 38.028 57.9066 37.9619C57.7827 37.8959 57.6607 37.8264 57.5402 37.7545C57.4202 37.6821 57.3017 37.6073 57.1846 37.5291C57.068 37.4513 56.9534 37.3702 56.8406 37.2866C56.7279 37.2031 56.6177 37.1166 56.5088 37.0277C56.4005 36.9388 56.2946 36.847 56.1906 36.7527C56.0866 36.6585 55.9846 36.5618 55.8855 36.4627C55.7864 36.3636 55.6897 36.2615 55.5955 36.1576C55.5012 36.0536 55.4094 35.9477 55.3205 35.8389C55.2316 35.7305 55.1451 35.6198 55.0615 35.5071C54.978 35.3943 54.8973 35.2797 54.8191 35.1631C54.7414 35.0465 54.6666 34.928 54.5942 34.8075C54.5223 34.687 54.4528 34.565 54.3867 34.4412C54.3207 34.3173 54.2575 34.1924 54.1977 34.0651C54.1375 33.9383 54.0807 33.8101 54.0272 33.6803C53.9733 33.5506 53.9228 33.4199 53.8756 33.2878C53.8285 33.1557 53.7843 33.0225 53.7435 32.888C53.7027 32.7539 53.6653 32.6188 53.6313 32.4823C53.5973 32.3463 53.5667 32.2093 53.539 32.0718C53.5118 31.9343 53.488 31.7958 53.4671 31.6569C53.4467 31.5184 53.4297 31.379 53.4156 31.2396C53.402 31.0996 53.3918 30.9597 53.385 30.8193C53.3777 30.6794 53.3743 30.539 53.3743 30.3986C53.3743 30.2582 53.3777 30.1183 53.385 29.9779C53.3918 29.8379 53.402 29.698 53.4156 29.5581C53.4297 29.4187 53.4467 29.2792 53.4671 29.1403C53.488 29.0018 53.5118 28.8634 53.539 28.7259C53.5667 28.5879 53.5973 28.4514 53.6313 28.3149C53.6653 28.1788 53.7027 28.0438 53.7435 27.9092C53.7843 27.7751 53.8285 27.642 53.8756 27.5099C53.9228 27.3777 53.9733 27.2465 54.0272 27.1168C54.0807 26.9871 54.1375 26.8588 54.1977 26.732C54.2575 26.6052 54.3207 26.4799 54.3867 26.356C54.4528 26.2326 54.5223 26.1102 54.5942 25.9902C54.6666 25.8697 54.7414 25.7512 54.8191 25.6346C54.8973 25.5175 54.978 25.4028 55.0615 25.2901C55.1451 25.1774 55.2316 25.0671 55.3205 24.9583C55.4094 24.8499 55.5012 24.7436 55.5955 24.6396C55.6897 24.5356 55.7864 24.4341 55.8855 24.335C55.9846 24.2359 56.0866 24.1387 56.1906 24.0444C56.2946 23.9502 56.4005 23.8589 56.5088 23.7695C56.6177 23.6806 56.7279 23.5946 56.8406 23.5105C56.9534 23.427 57.068 23.3463 57.1846 23.2686C57.3017 23.1904 57.4202 23.1155 57.5402 23.0432C57.6607 22.9713 57.7827 22.9018 57.9066 22.8357C58.0304 22.7696 58.1558 22.7065 58.2826 22.6462C58.4094 22.5865 58.5376 22.5296 58.6669 22.4757C58.7966 22.4223 58.9278 22.3717 59.0599 22.3246C59.1921 22.277 59.3252 22.2333 59.4593 22.1925C59.5938 22.1517 59.7289 22.1143 59.8649 22.0802C60.001 22.0462 60.138 22.0151 60.2754 21.9879C60.4129 21.9607 60.5514 21.9364 60.6903 21.916C60.8288 21.8951 60.9682 21.8781 61.1077 21.8645C61.2476 21.8504 61.3875 21.8402 61.5274 21.8334C61.6678 21.8266 61.8077 21.8232 61.9482 21.8232C70.9904 21.8232 73.3797 27.4316 73.3797 30.3986H67.6639C67.6323 29.99 67.2097 27.54 61.9482 27.54C61.8544 27.54 61.7611 27.5448 61.6678 27.5541C61.575 27.5633 61.4822 27.5769 61.3904 27.5954C61.2986 27.6133 61.2082 27.6362 61.1184 27.6634C61.029 27.6906 60.941 27.7222 60.8546 27.7576C60.7681 27.7936 60.6835 27.8334 60.601 27.8776C60.5184 27.9218 60.4382 27.9699 60.3605 28.0219C60.2827 28.0739 60.2074 28.1298 60.135 28.189C60.0627 28.2483 59.9937 28.3115 59.9271 28.3775C59.861 28.4436 59.7984 28.5131 59.7391 28.5855C59.6793 28.6579 59.624 28.7327 59.572 28.8104C59.52 28.8886 59.4719 28.9688 59.4277 29.0514C59.3835 29.134 59.3436 29.2185 59.3077 29.305C59.2717 29.3915 59.2406 29.4794 59.2134 29.5688C59.1862 29.6587 59.1634 29.749 59.1449 29.8409C59.127 29.9327 59.1133 30.0255 59.1041 30.1187C59.0949 30.2115 59.09 30.3053 59.09 30.3986C59.09 30.4923 59.0949 30.5856 59.1041 30.6789C59.1133 30.7722 59.127 30.8645 59.1449 30.9563C59.1634 31.0481 59.1862 31.139 59.2134 31.2284C59.2406 31.3183 59.2717 31.4062 59.3077 31.4927C59.3436 31.5791 59.3835 31.6637 59.4277 31.7463C59.4719 31.8289 59.52 31.909 59.572 31.9868C59.624 32.0645 59.6793 32.1398 59.7391 32.2122C59.7984 32.2846 59.861 32.354 59.9271 32.4201C59.9937 32.4862 60.0627 32.5489 60.135 32.6086C60.2074 32.6679 60.2827 32.7238 60.3605 32.7757C60.4382 32.8277 60.5184 32.8758 60.601 32.9195C60.6835 32.9638 60.7681 33.0041 60.8546 33.0395C60.941 33.0755 61.029 33.1071 61.1184 33.1343C61.2082 33.1615 61.2986 33.1843 61.3904 33.2023C61.4822 33.2208 61.575 33.2344 61.6678 33.2436C61.7611 33.2528 61.8544 33.2572 61.9482 33.2572H64.8063C64.9462 33.2572 65.0866 33.2606 65.2265 33.2674C65.3669 33.2747 65.5068 33.2849 65.6463 33.2985C65.7862 33.3126 65.9251 33.3296 66.0641 33.35C66.203 33.3709 66.341 33.3947 66.4785 33.4219C66.6165 33.4496 66.753 33.4802 66.8895 33.5142C67.0255 33.5482 67.1606 33.5856 67.2947 33.6264C67.4293 33.6672 67.5624 33.7114 67.6945 33.7586C67.8267 33.8057 67.9574 33.8562 68.0871 33.9101C68.2168 33.9636 68.345 34.0204 68.4718 34.0807C68.5986 34.1404 68.724 34.2036 68.8479 34.2701C68.9713 34.3362 69.0937 34.4052 69.2137 34.4776C69.3342 34.5495 69.4527 34.6248 69.5693 34.7025C69.6859 34.7807 69.8006 34.8614 69.9133 34.945C70.026 35.0285 70.1368 35.115 70.2451 35.2039C70.3535 35.2928 70.4599 35.3846 70.5638 35.4789C70.6678 35.5731 70.7693 35.6698 70.8684 35.7689C70.968 35.8685 71.0647 35.9701 71.159 36.074C71.2532 36.178 71.3445 36.2839 71.4334 36.3927C71.5228 36.5011 71.6088 36.6118 71.6924 36.7245C71.776 36.8373 71.8571 36.9519 71.9348 37.0685C72.013 37.1851 72.0879 37.3036 72.1598 37.4241C72.2321 37.5446 72.3011 37.6666 72.3672 37.7904C72.4338 37.9143 72.4964 38.0397 72.5567 38.1665C72.6164 38.2933 72.6733 38.4215 72.7272 38.5513C72.7806 38.681 72.8312 38.8117 72.8788 38.9438C72.9259 39.0759 72.9696 39.2091 73.0104 39.3436C73.0513 39.4777 73.0887 39.6133 73.1227 39.7493C73.1572 39.8853 73.1878 40.0223 73.215 40.1598C73.2422 40.2973 73.2665 40.4358 73.2869 40.5747C73.3078 40.7137 73.3248 40.8526 73.3384 40.9925C73.3525 41.132 73.3627 41.2719 73.3695 41.4123C73.3763 41.5522 73.3797 41.6926 73.3797 41.833C73.3797 41.9734 73.3763 42.1133 73.3695 42.2537C73.3627 42.3937 73.3525 42.5341 73.3384 42.6735C73.3248 42.8129 73.3078 42.9524 73.2869 43.0913C73.2665 43.2303 73.2422 43.3682 73.215 43.5057C73.1878 43.6437 73.1572 43.7807 73.1227 43.9167C73.0887 44.0528 73.0513 44.1878 73.0104 44.3224C72.9696 44.4565 72.9259 44.5896 72.8788 44.7218C72.8312 44.8539 72.7806 44.9851 72.7272 45.1148C72.6733 45.2445 72.6164 45.3728 72.5567 45.4996C72.4964 45.6264 72.4338 45.7517 72.3672 45.8756C72.3011 45.9995 72.2321 46.1214 72.1598 46.2419C72.0879 46.3619 72.013 46.4804 71.9348 46.5975C71.8571 46.7141 71.776 46.8288 71.6924 46.9415C71.6088 47.0542 71.5228 47.165 71.4334 47.2733C71.3445 47.3817 71.2532 47.4881 71.159 47.592C71.0647 47.696 70.968 47.7975 70.8684 47.8966C70.7693 47.9962 70.6678 48.0929 70.5638 48.1872C70.4599 48.2814 70.3535 48.3727 70.2451 48.4621C70.1368 48.551 70.026 48.6375 69.9133 48.7211C69.8006 48.8046 69.6859 48.8853 69.5693 48.9635C69.4527 49.0412 69.3342 49.1165 69.2137 49.1884C69.0937 49.2608 68.9713 49.3298 68.8479 49.3959C68.724 49.462 68.5986 49.5251 68.4718 49.5854C68.345 49.6451 68.2168 49.702 68.0871 49.7559C67.9574 49.8093 67.8267 49.8599 67.6945 49.9075C67.5624 49.9546 67.4293 49.9988 67.2947 50.0391C67.1606 50.0799 67.0255 50.1173 66.8895 50.1514C66.753 50.1859 66.6165 50.2165 66.4785 50.2437C66.341 50.2714 66.203 50.2952 66.0641 50.3156C65.9251 50.3365 65.7862 50.3535 65.6463 50.3671C65.5068 50.3812 65.3669 50.3914 65.2265 50.3982C65.0866 50.405 64.9462 50.4084 64.8063 50.4084Z" fill="white"/>
<path d="M69.2644 49.1528C69.0735 49.4647 68.8636 49.7635 68.6348 50.0486C68.4055 50.3343 68.1597 50.6039 67.8959 50.8575C67.6325 51.1116 67.3542 51.3477 67.0607 51.5664C66.7673 51.785 66.4612 51.9837 66.142 52.163C65.8233 52.3427 65.4944 52.5011 65.1553 52.6386C64.8162 52.7761 64.4698 52.8912 64.1161 52.9845C63.7624 53.0778 63.4039 53.1482 63.0415 53.1958C62.6786 53.2434 62.3142 53.2677 61.9484 53.2687C52.9173 53.2687 50.5168 47.6661 50.5168 44.6934H54.0031C55.175 47.4373 58.2332 50.4101 64.8065 50.4101C65.593 50.4106 66.365 50.3042 67.1224 50.0904C67.8798 49.8767 68.594 49.5643 69.2644 49.1528Z" fill="#08449E"/>
<path d="M67.6641 41.8328C67.6641 41.9266 67.6597 42.0199 67.6505 42.1131C67.6412 42.2059 67.6276 42.2987 67.6092 42.3905C67.5907 42.4824 67.5684 42.5727 67.5411 42.6626C67.5139 42.752 67.4824 42.8399 67.4464 42.9264C67.4109 43.0134 67.3706 43.0979 67.3264 43.18C67.2827 43.2626 67.2346 43.3433 67.1826 43.421C67.1306 43.4987 67.0748 43.574 67.0155 43.6464C66.9562 43.7183 66.8931 43.7878 66.827 43.8539C66.7609 43.9204 66.6914 43.9831 66.619 44.0424C66.5467 44.1016 66.4718 44.1575 66.3941 44.2095C66.3164 44.2615 66.2357 44.3096 66.1536 44.3538C66.071 44.398 65.9865 44.4378 65.9 44.4738C65.8135 44.5097 65.7256 44.5408 65.6357 44.568C65.5463 44.5952 65.4555 44.6181 65.3637 44.6365C65.2718 44.6545 65.1795 44.6681 65.0863 44.6773C64.993 44.6866 64.8997 44.6914 64.8064 44.6914C64.8064 44.5977 64.8016 44.5044 64.7923 44.4111C64.7831 44.3178 64.7695 44.2255 64.7515 44.1337C64.7331 44.0419 64.7102 43.951 64.683 43.8616C64.6558 43.7718 64.6242 43.6838 64.5888 43.5973C64.5528 43.5109 64.513 43.4263 64.4688 43.3437C64.4246 43.2611 64.3765 43.181 64.3245 43.1033C64.2725 43.0255 64.2166 42.9502 64.1574 42.8778C64.0981 42.8054 64.0354 42.736 63.9693 42.6699C63.9028 42.6038 63.8338 42.5412 63.7614 42.4814C63.689 42.4221 63.6137 42.3663 63.536 42.3143C63.4583 42.2623 63.3781 42.2142 63.2955 42.1705C63.2129 42.1263 63.1284 42.0859 63.0419 42.0505C62.9554 42.0145 62.8675 41.9829 62.7781 41.9557C62.6882 41.9285 62.5979 41.9057 62.506 41.8877C62.4142 41.8693 62.3214 41.8556 62.2286 41.8464C62.1353 41.8372 62.0421 41.8328 61.9483 41.8328H59.0902V41.7468L58.2332 41.7755H58.2045C57.9835 41.7522 57.7644 41.7196 57.5457 41.6793C57.3276 41.6385 57.1114 41.5894 56.8967 41.5321C56.6824 41.4743 56.4706 41.4087 56.2612 41.3348C56.0518 41.261 55.8458 41.1789 55.6427 41.089C55.4397 40.9991 55.2405 40.9015 55.0452 40.7956C54.8499 40.6901 54.6585 40.5774 54.4719 40.4574C54.2853 40.337 54.1036 40.2097 53.9268 40.0751C53.7504 39.941 53.5789 39.7996 53.4133 39.6519C53.2476 39.5042 53.0878 39.3502 52.9338 39.1904C52.7798 39.0301 52.6326 38.8644 52.4917 38.6929C52.3508 38.5209 52.2167 38.3441 52.0894 38.1624C51.9621 37.9802 51.8421 37.7936 51.7294 37.6022C51.6167 37.4108 51.5118 37.2155 51.4141 37.0163C51.3165 36.8166 51.2271 36.6136 51.145 36.4071C51.0633 36.2006 50.9895 35.9912 50.9239 35.7794C50.8588 35.5671 50.8015 35.3528 50.7524 35.1362C50.7038 34.9195 50.6635 34.7014 50.6314 34.4813C50.5994 34.2617 50.576 34.0411 50.5615 33.8196C50.5464 33.598 50.5406 33.376 50.543 33.154C50.5454 32.932 50.5561 32.7104 50.576 32.4889C50.5955 32.2678 50.6237 32.0478 50.6606 31.8287C50.6975 31.61 50.7427 31.3924 50.7961 31.1772C50.8501 30.9615 50.9118 30.7487 50.9817 30.5378C51.0522 30.327 51.1304 30.1195 51.2169 29.915C51.3028 29.7104 51.3971 29.5093 51.4991 29.3121C51.6007 29.1148 51.7105 28.9219 51.8271 28.733C51.9441 28.544 52.068 28.3603 52.1992 28.1811C52.3304 28.0018 52.4683 27.8279 52.6131 27.6598C52.7579 27.4912 52.909 27.3284 53.0664 27.172C53.2233 27.0151 53.3866 26.865 53.5556 26.7207C53.7247 26.5769 53.8991 26.4399 54.0789 26.3092C54.2581 26.1785 54.4428 26.0556 54.6322 25.9395C54.435 26.2625 54.2606 26.5977 54.108 26.9446C53.9555 27.291 53.8262 27.6462 53.7208 28.0101C53.6154 28.3739 53.5343 28.7432 53.4779 29.1173C53.4215 29.4918 53.3895 29.8683 53.3832 30.2473C53.3764 30.6257 53.3948 31.0032 53.4381 31.3797C53.4813 31.7558 53.5493 32.1274 53.6416 32.4947C53.7344 32.862 53.8505 33.2215 53.9909 33.5733C54.1313 33.9255 54.2941 34.2665 54.4792 34.5964C54.6648 34.9268 54.8708 35.2435 55.0981 35.5462C55.3255 35.8494 55.5718 36.136 55.8371 36.4061C56.1023 36.6762 56.3841 36.9279 56.6829 37.1611C56.9817 37.3938 57.2941 37.6061 57.621 37.7975C57.9475 37.9889 58.2856 38.158 58.6345 38.3047C58.9838 38.4515 59.3409 38.5744 59.7062 38.674C60.0715 38.7731 60.4422 38.8479 60.8173 38.8984C61.1928 38.9485 61.5698 38.9737 61.9483 38.9742H64.8064C64.8997 38.9742 64.993 38.9786 65.0863 38.9878C65.1795 38.997 65.2718 39.0106 65.3637 39.0291C65.4555 39.0476 65.5463 39.0699 65.6357 39.0971C65.7256 39.1243 65.8135 39.1559 65.9 39.1919C65.9865 39.2278 66.071 39.2676 66.1536 39.3119C66.2357 39.3561 66.3164 39.4042 66.3941 39.4561C66.4718 39.5081 66.5467 39.5635 66.619 39.6233C66.6914 39.6825 66.7609 39.7452 66.827 39.8113C66.8931 39.8778 66.9562 39.9468 67.0155 40.0192C67.0748 40.0916 67.1306 40.1669 67.1826 40.2446C67.2346 40.3224 67.2827 40.4025 67.3264 40.4851C67.3706 40.5677 67.4109 40.6523 67.4464 40.7387C67.4824 40.8252 67.5139 40.9131 67.5411 41.003C67.5684 41.0924 67.5907 41.1833 67.6092 41.2751C67.6276 41.3669 67.6412 41.4592 67.6505 41.5525C67.6597 41.6458 67.6641 41.739 67.6641 41.8328Z" fill="#08449E"/>
<path d="M70.5221 33.2582H64.8063C64.7777 32.8579 64.3487 30.3996 59.0901 30.3996C59.0901 30.3063 59.0949 30.2126 59.1042 30.1198C59.1134 30.0265 59.127 29.9337 59.145 29.8419C59.1634 29.7501 59.1863 29.6597 59.2135 29.5698C59.2407 29.4804 59.2718 29.3925 59.3077 29.306C59.3437 29.2195 59.3835 29.135 59.4277 29.0524C59.4719 28.9698 59.52 28.8897 59.572 28.8115C59.624 28.7337 59.6794 28.6589 59.7392 28.5865C59.7984 28.5141 59.8611 28.4447 59.9272 28.3786C59.9937 28.3125 60.0627 28.2494 60.1351 28.1901C60.2075 28.1308 60.2828 28.0749 60.3605 28.023C60.4383 27.971 60.5184 27.9229 60.601 27.8787C60.6836 27.8345 60.7681 27.7946 60.8546 27.7587C60.9411 27.7232 61.029 27.6916 61.1184 27.6644C61.2083 27.6372 61.2987 27.6144 61.3905 27.5964C61.4823 27.5779 61.5751 27.5643 61.6679 27.5551C61.7612 27.5459 61.8544 27.541 61.9482 27.541C67.2068 27.541 67.6353 29.9998 67.664 30.3996H69.8934C70.3001 31.3091 70.5099 32.2618 70.5221 33.2582Z" fill="#08449E"/>
<path d="M90.5275 50.4084C81.4848 50.4084 79.0955 44.8 79.0955 41.833H81.9536L84.8117 41.7499C84.8457 42.2416 85.2689 44.6916 90.5275 44.6916C90.6207 44.6916 90.7145 44.6868 90.8073 44.6775C90.9006 44.6683 90.9929 44.6547 91.0847 44.6367C91.1765 44.6183 91.2674 44.5954 91.3568 44.5682C91.4467 44.541 91.5346 44.5099 91.6211 44.474C91.7075 44.438 91.7921 44.3982 91.8747 44.354C91.9573 44.3098 92.0374 44.2617 92.1152 44.2097C92.1929 44.1577 92.2682 44.1018 92.3406 44.0426C92.4125 43.9833 92.4819 43.9206 92.548 43.8541C92.6141 43.788 92.6773 43.7185 92.7365 43.6466C92.7958 43.5742 92.8517 43.4989 92.9036 43.4212C92.9556 43.3435 93.0037 43.2628 93.0479 43.1802C93.0917 43.0981 93.132 43.0136 93.1675 42.9266C93.2034 42.8401 93.235 42.7522 93.2622 42.6628C93.2894 42.5729 93.3122 42.4826 93.3302 42.3907C93.3487 42.2989 93.3623 42.2061 93.3715 42.1133C93.3807 42.0201 93.3851 41.9268 93.3851 41.833C93.3851 41.7393 93.3807 41.646 93.3715 41.5527C93.3623 41.4594 93.3487 41.3671 93.3302 41.2753C93.3122 41.1835 93.2894 41.0926 93.2622 41.0032C93.235 40.9133 93.2034 40.8254 93.1675 40.7389C93.132 40.6525 93.0917 40.5679 93.0479 40.4853C93.0037 40.4027 92.9556 40.3226 92.9036 40.2449C92.8517 40.1671 92.7958 40.0918 92.7365 40.0194C92.6773 39.947 92.6141 39.878 92.548 39.8115C92.4819 39.7454 92.4125 39.6827 92.3406 39.6235C92.2682 39.5637 92.1929 39.5083 92.1152 39.4564C92.0374 39.4044 91.9573 39.3563 91.8747 39.3121C91.7921 39.2679 91.7075 39.228 91.6211 39.1921C91.5346 39.1561 91.4467 39.1245 91.3568 39.0973C91.2674 39.0701 91.1765 39.0478 91.0847 39.0293C90.9929 39.0108 90.9006 38.9972 90.8073 38.988C90.7145 38.9788 90.6207 38.9744 90.5275 38.9744H87.6693C87.5289 38.9744 87.389 38.971 87.2486 38.9642C87.1087 38.9574 86.9688 38.9467 86.8289 38.9331C86.6894 38.9195 86.55 38.902 86.4115 38.8816C86.2726 38.8612 86.1341 38.8369 85.9966 38.8097C85.8591 38.782 85.7221 38.7514 85.5861 38.7174C85.4501 38.6834 85.315 38.646 85.1804 38.6052C85.0464 38.5644 84.9132 38.5202 84.7811 38.473C84.649 38.4259 84.5178 38.3754 84.3885 38.3215C84.2588 38.268 84.1306 38.2112 84.0038 38.1509C83.877 38.0912 83.7516 38.028 83.6277 37.9619C83.5039 37.8959 83.3819 37.8264 83.2614 37.7545C83.1414 37.6821 83.0229 37.6073 82.9063 37.5291C82.7892 37.4513 82.6746 37.3702 82.5618 37.2866C82.4491 37.2031 82.3388 37.1166 82.2305 37.0277C82.1217 36.9388 82.0158 36.847 81.9118 36.7527C81.8078 36.6585 81.7063 36.5618 81.6067 36.4627C81.5076 36.3636 81.4109 36.2615 81.3167 36.1576C81.2224 36.0536 81.1306 35.9477 81.0417 35.8389C80.9528 35.7305 80.8663 35.6198 80.7827 35.5071C80.6992 35.3943 80.6185 35.2797 80.5408 35.1631C80.4626 35.0465 80.3878 34.928 80.3154 34.8075C80.2435 34.687 80.174 34.565 80.1079 34.4412C80.0419 34.3173 79.9787 34.1924 79.9189 34.0651C79.8587 33.9383 79.8019 33.8101 79.7484 33.6803C79.6945 33.5506 79.644 33.4199 79.5968 33.2878C79.5497 33.1557 79.5055 33.0225 79.4647 32.888C79.4239 32.7539 79.3865 32.6188 79.3525 32.4823C79.3185 32.3463 79.2878 32.2093 79.2602 32.0718C79.2329 31.9343 79.2091 31.7958 79.1883 31.6569C79.1678 31.5184 79.1508 31.379 79.1368 31.2396C79.1232 31.0996 79.1129 30.9597 79.1061 30.8193C79.0989 30.6794 79.0955 30.539 79.0955 30.3986C79.0955 30.2582 79.0989 30.1183 79.1061 29.9779C79.1129 29.8379 79.1232 29.698 79.1368 29.5581C79.1508 29.4187 79.1678 29.2792 79.1883 29.1403C79.2091 29.0018 79.2329 28.8634 79.2602 28.7259C79.2878 28.5879 79.3185 28.4514 79.3525 28.3149C79.3865 28.1788 79.4239 28.0438 79.4647 27.9092C79.5055 27.7751 79.5497 27.642 79.5968 27.5099C79.644 27.3777 79.6945 27.2465 79.7484 27.1168C79.8019 26.9871 79.8587 26.8588 79.9189 26.732C79.9787 26.6052 80.0419 26.4799 80.1079 26.356C80.174 26.2326 80.2435 26.1102 80.3154 25.9902C80.3878 25.8697 80.4626 25.7512 80.5408 25.6346C80.6185 25.5175 80.6992 25.4028 80.7827 25.2901C80.8663 25.1774 80.9528 25.0671 81.0417 24.9583C81.1306 24.8499 81.2224 24.7436 81.3167 24.6396C81.4109 24.5356 81.5076 24.4341 81.6067 24.335C81.7063 24.2359 81.8078 24.1387 81.9118 24.0444C82.0158 23.9502 82.1217 23.8589 82.2305 23.7695C82.3388 23.6806 82.4491 23.5946 82.5618 23.5105C82.6746 23.427 82.7892 23.3463 82.9063 23.2686C83.0229 23.1904 83.1414 23.1155 83.2614 23.0432C83.3819 22.9713 83.5039 22.9018 83.6277 22.8357C83.7516 22.7696 83.877 22.7065 84.0038 22.6462C84.1306 22.5865 84.2588 22.5296 84.3885 22.4757C84.5178 22.4223 84.649 22.3717 84.7811 22.3246C84.9132 22.277 85.0464 22.2333 85.1804 22.1925C85.315 22.1517 85.4501 22.1143 85.5861 22.0802C85.7221 22.0462 85.8591 22.0151 85.9966 21.9879C86.1341 21.9607 86.2726 21.9364 86.4115 21.916C86.55 21.8951 86.6894 21.8781 86.8289 21.8645C86.9688 21.8504 87.1087 21.8402 87.2486 21.8334C87.389 21.8266 87.5289 21.8232 87.6693 21.8232C96.712 21.8232 99.1009 27.4316 99.1009 30.3986H93.3851C93.354 29.99 92.9309 27.54 87.6693 27.54C87.5756 27.54 87.4823 27.5448 87.389 27.5541C87.2962 27.5633 87.2034 27.5769 87.1116 27.5954C87.0198 27.6133 86.9294 27.6362 86.8395 27.6634C86.7502 27.6906 86.6622 27.7222 86.5757 27.7576C86.4893 27.7936 86.4047 27.8334 86.3221 27.8776C86.2396 27.9218 86.1594 27.9699 86.0817 28.0219C86.0039 28.0739 85.9286 28.1298 85.8562 28.189C85.7838 28.2483 85.7149 28.3115 85.6483 28.3775C85.5822 28.4436 85.5196 28.5131 85.4603 28.5855C85.401 28.6579 85.3451 28.7327 85.2932 28.8104C85.2412 28.8886 85.1931 28.9688 85.1489 29.0514C85.1047 29.134 85.0648 29.2185 85.0289 29.305C84.9934 29.3915 84.9618 29.4794 84.9346 29.5688C84.9074 29.6587 84.8846 29.749 84.8666 29.8409C84.8481 29.9327 84.8345 30.0255 84.8253 30.1187C84.8161 30.2115 84.8117 30.3053 84.8117 30.3986C84.8117 30.4923 84.8161 30.5856 84.8253 30.6789C84.8345 30.7722 84.8481 30.8645 84.8666 30.9563C84.8846 31.0481 84.9074 31.139 84.9346 31.2284C84.9618 31.3183 84.9934 31.4062 85.0289 31.4927C85.0648 31.5791 85.1047 31.6637 85.1489 31.7463C85.1931 31.8289 85.2412 31.909 85.2932 31.9868C85.3451 32.0645 85.401 32.1398 85.4603 32.2122C85.5196 32.2846 85.5822 32.354 85.6483 32.4201C85.7149 32.4862 85.7838 32.5489 85.8562 32.6086C85.9286 32.6679 86.0039 32.7238 86.0817 32.7757C86.1594 32.8277 86.2396 32.8758 86.3221 32.9195C86.4047 32.9638 86.4893 33.0041 86.5757 33.0395C86.6622 33.0755 86.7502 33.1071 86.8395 33.1343C86.9294 33.1615 87.0198 33.1843 87.1116 33.2023C87.2034 33.2208 87.2962 33.2344 87.389 33.2436C87.4823 33.2528 87.5756 33.2572 87.6693 33.2572H90.5275C90.6674 33.2572 90.8078 33.2606 90.9482 33.2674C91.0881 33.2747 91.228 33.2849 91.3675 33.2985C91.5074 33.3126 91.6463 33.3296 91.7853 33.35C91.9242 33.3709 92.0622 33.3947 92.2002 33.4219C92.3377 33.4496 92.4747 33.4802 92.6107 33.5142C92.7467 33.5482 92.8818 33.5856 93.0164 33.6264C93.1504 33.6672 93.2836 33.7114 93.4157 33.7586C93.5479 33.8057 93.6785 33.8562 93.8083 33.9101C93.938 33.9636 94.0662 34.0204 94.193 34.0807C94.3198 34.1404 94.4452 34.2036 94.5691 34.2701C94.6925 34.3362 94.8149 34.4052 94.9349 34.4776C95.0554 34.5495 95.1739 34.6248 95.2905 34.7025C95.4071 34.7807 95.5218 34.8614 95.6345 34.945C95.7472 35.0285 95.858 35.115 95.9663 35.2039C96.0751 35.2928 96.181 35.3846 96.285 35.4789C96.389 35.5731 96.4905 35.6698 96.5896 35.7689C96.6892 35.8685 96.7859 35.9701 96.8801 36.074C96.9744 36.178 97.0657 36.2839 97.1551 36.3927C97.244 36.5011 97.33 36.6118 97.4136 36.7245C97.4971 36.8373 97.5783 36.9519 97.656 37.0685C97.7342 37.1851 97.809 37.3036 97.8814 37.4241C97.9533 37.5446 98.0223 37.6666 98.0889 37.7904C98.155 37.9143 98.2181 38.0397 98.2779 38.1665C98.3376 38.2933 98.3945 38.4215 98.4484 38.5513C98.5023 38.681 98.5524 38.8117 98.6 38.9438C98.6471 39.0759 98.6913 39.2091 98.7316 39.3436C98.7724 39.4777 98.8099 39.6133 98.8439 39.7493C98.8784 39.8853 98.909 40.0223 98.9362 40.1598C98.9639 40.2973 98.9877 40.4358 99.0081 40.5747C99.029 40.7137 99.046 40.8526 99.0596 40.9925C99.0737 41.132 99.0839 41.2719 99.0907 41.4123C99.0975 41.5522 99.1009 41.6926 99.1009 41.833C99.1009 41.9734 99.0975 42.1133 99.0907 42.2537C99.0839 42.3937 99.0737 42.5341 99.0596 42.6735C99.046 42.8129 99.029 42.9524 99.0081 43.0913C98.9877 43.2303 98.9639 43.3682 98.9362 43.5057C98.909 43.6437 98.8784 43.7807 98.8439 43.9167C98.8099 44.0528 98.7724 44.1878 98.7316 44.3224C98.6913 44.4565 98.6471 44.5896 98.6 44.7218C98.5524 44.8539 98.5023 44.9851 98.4484 45.1148C98.3945 45.2445 98.3376 45.3728 98.2779 45.4996C98.2181 45.6264 98.155 45.7517 98.0889 45.8756C98.0223 45.9995 97.9533 46.1214 97.8814 46.2419C97.809 46.3619 97.7342 46.4804 97.656 46.5975C97.5783 46.7141 97.4971 46.8288 97.4136 46.9415C97.33 47.0542 97.244 47.165 97.1551 47.2733C97.0657 47.3817 96.9744 47.4881 96.8801 47.592C96.7859 47.696 96.6892 47.7975 96.5896 47.8966C96.4905 47.9962 96.389 48.0929 96.285 48.1872C96.181 48.2814 96.0746 48.3727 95.9663 48.4621C95.858 48.551 95.7472 48.6375 95.6345 48.7211C95.5218 48.8046 95.4071 48.8853 95.2905 48.9635C95.1739 49.0412 95.0554 49.1165 94.9349 49.1884C94.8149 49.2608 94.6925 49.3298 94.5691 49.3959C94.4452 49.462 94.3198 49.5251 94.193 49.5854C94.0662 49.6451 93.938 49.702 93.8083 49.7559C93.6785 49.8093 93.5479 49.8599 93.4157 49.9075C93.2836 49.9546 93.1504 49.9988 93.0164 50.0391C92.8818 50.0799 92.7467 50.1173 92.6107 50.1514C92.4747 50.1859 92.3377 50.2165 92.2002 50.2437C92.0622 50.2714 91.9242 50.2952 91.7853 50.3156C91.6463 50.3365 91.5074 50.3535 91.3675 50.3671C91.228 50.3812 91.0881 50.3914 90.9482 50.3982C90.8078 50.405 90.6674 50.4084 90.5275 50.4084Z" fill="white"/>
<path d="M94.9854 49.1528C94.7945 49.4647 94.5846 49.7635 94.3558 50.0486C94.1264 50.3343 93.8806 50.6039 93.6168 50.8575C93.3535 51.1116 93.0751 51.3477 92.7817 51.5664C92.4882 51.785 92.1822 51.9837 91.863 52.163C91.5443 52.3427 91.2154 52.5011 90.8763 52.6386C90.5372 52.7761 90.1908 52.8912 89.8371 52.9845C89.4834 53.0778 89.1249 53.1482 88.7624 53.1958C88.3995 53.2434 88.0351 53.2677 87.6693 53.2687C78.6383 53.2687 76.2378 47.6661 76.2378 44.6934H79.7246C80.8959 47.4373 83.9542 50.4101 90.5274 50.4101C91.314 50.4106 92.0865 50.3042 92.8434 50.0904C93.6008 49.8767 94.3149 49.5643 94.9854 49.1528Z" fill="#08449E"/>
<path d="M93.385 41.8328C93.385 41.9266 93.3806 42.0199 93.3714 42.1131C93.3622 42.2059 93.3486 42.2987 93.3301 42.3905C93.3121 42.4824 93.2893 42.5727 93.2621 42.6626C93.2349 42.752 93.2033 42.8399 93.1674 42.9264C93.1319 43.0134 93.0916 43.0979 93.0478 43.18C93.0036 43.2626 92.9555 43.3433 92.9036 43.421C92.8516 43.4987 92.7957 43.574 92.7364 43.6464C92.6772 43.7183 92.614 43.7878 92.5479 43.8539C92.4819 43.9204 92.4124 43.9831 92.3405 44.0424C92.2681 44.1016 92.1928 44.1575 92.1151 44.2095C92.0373 44.2615 91.9572 44.3096 91.8746 44.3538C91.792 44.398 91.7074 44.4378 91.621 44.4738C91.5345 44.5097 91.4466 44.5408 91.3567 44.568C91.2673 44.5952 91.1764 44.6181 91.0846 44.6365C90.9928 44.6545 90.9005 44.6681 90.8072 44.6773C90.7144 44.6866 90.6206 44.6914 90.5274 44.6914C90.5274 44.5977 90.5225 44.5044 90.5133 44.4111C90.5041 44.3178 90.4904 44.2255 90.4725 44.1337C90.454 44.0419 90.4312 43.951 90.404 43.8616C90.3768 43.7718 90.3457 43.6838 90.3097 43.5973C90.2738 43.5109 90.2339 43.4263 90.1897 43.3437C90.1455 43.2611 90.0974 43.181 90.0454 43.1033C89.9934 43.0255 89.9381 42.9502 89.8783 42.8778C89.819 42.8054 89.7564 42.736 89.6903 42.6699C89.6237 42.6038 89.5547 42.5412 89.4824 42.4814C89.41 42.4221 89.3347 42.3663 89.2569 42.3143C89.1792 42.2623 89.099 42.2142 89.0164 42.1705C88.9339 42.1263 88.8493 42.0859 88.7628 42.0505C88.6764 42.0145 88.5884 41.9829 88.499 41.9557C88.4092 41.9285 88.3188 41.9057 88.227 41.8877C88.1352 41.8693 88.0424 41.8556 87.9496 41.8464C87.8563 41.8372 87.763 41.8328 87.6692 41.8328H84.8116V41.7468L83.9541 41.7755H83.9255C83.7049 41.7522 83.4853 41.7196 83.2667 41.6793C83.0485 41.6385 82.8323 41.5894 82.6176 41.5321C82.4034 41.4743 82.1915 41.4087 81.9822 41.3348C81.7728 41.261 81.5668 41.1789 81.3637 41.089C81.1606 40.9991 80.9614 40.9015 80.7661 40.7956C80.5708 40.6901 80.3794 40.5774 80.1928 40.4574C80.0063 40.337 79.8246 40.2097 79.6477 40.0751C79.4714 39.941 79.2999 39.7996 79.1342 39.6519C78.9686 39.5042 78.8087 39.3502 78.6547 39.1904C78.5007 39.0301 78.3535 38.8644 78.2126 38.6929C78.0717 38.5209 77.9376 38.3441 77.8103 38.1624C77.6831 37.9802 77.5631 37.7936 77.4504 37.6022C77.3376 37.4108 77.2327 37.2155 77.135 37.0163C77.0374 36.8166 76.948 36.6136 76.8659 36.4071C76.7843 36.2006 76.7109 35.9912 76.6453 35.7794C76.5797 35.5671 76.5224 35.3528 76.4734 35.1362C76.4248 34.9195 76.3844 34.7014 76.3524 34.4813C76.3203 34.2617 76.297 34.0411 76.2824 33.8196C76.2674 33.598 76.2615 33.376 76.264 33.154C76.2664 32.932 76.2776 32.7104 76.297 32.4889C76.3169 32.2678 76.3451 32.0478 76.3815 31.8287C76.4185 31.61 76.4636 31.3924 76.5171 31.1772C76.571 30.9615 76.6327 30.7487 76.7031 30.5378C76.7731 30.327 76.8513 30.1195 76.9378 29.915C77.0238 29.7104 77.118 29.5093 77.2201 29.3121C77.3221 29.1148 77.4314 28.9219 77.548 28.733C77.6651 28.544 77.789 28.3603 77.9201 28.1811C78.0518 28.0018 78.1893 27.8279 78.3341 27.6598C78.4788 27.4912 78.6299 27.3284 78.7873 27.172C78.9448 27.0151 79.1075 26.865 79.2766 26.7207C79.4456 26.5769 79.6201 26.4399 79.7998 26.3092C79.9796 26.1785 80.1637 26.0556 80.3532 25.9395C80.1559 26.2625 79.9815 26.5977 79.829 26.9446C79.6764 27.291 79.5472 27.6462 79.4418 28.0101C79.3363 28.3739 79.2557 28.7432 79.1988 29.1173C79.1425 29.4918 79.1109 29.8683 79.1041 30.2473C79.0973 30.6257 79.1158 31.0032 79.159 31.3797C79.2022 31.7558 79.2703 32.1274 79.3626 32.4947C79.4554 32.862 79.572 33.2215 79.7119 33.5733C79.8523 33.9255 80.015 34.2665 80.2001 34.5964C80.3857 34.9268 80.5922 35.2435 80.8191 35.5462C81.0464 35.8494 81.2928 36.136 81.558 36.4061C81.8233 36.6762 82.1056 36.9279 82.4038 37.1611C82.7026 37.3938 83.015 37.6061 83.342 37.7975C83.6685 37.9889 84.0066 38.158 84.3554 38.3047C84.7047 38.4515 85.0618 38.5744 85.4272 38.674C85.7925 38.7731 86.1632 38.8479 86.5382 38.8984C86.9138 38.9485 87.2908 38.9737 87.6692 38.9742H90.5274C90.6206 38.9742 90.7144 38.9786 90.8072 38.9878C90.9005 38.997 90.9928 39.0106 91.0846 39.0291C91.1764 39.0476 91.2673 39.0699 91.3567 39.0971C91.4466 39.1243 91.5345 39.1559 91.621 39.1919C91.7074 39.2278 91.792 39.2676 91.8746 39.3119C91.9572 39.3561 92.0373 39.4042 92.1151 39.4561C92.1928 39.5081 92.2681 39.5635 92.3405 39.6233C92.4124 39.6825 92.4819 39.7452 92.5479 39.8113C92.614 39.8778 92.6772 39.9468 92.7364 40.0192C92.7957 40.0916 92.8516 40.1669 92.9036 40.2446C92.9555 40.3224 93.0036 40.4025 93.0478 40.4851C93.0916 40.5677 93.1319 40.6523 93.1674 40.7387C93.2033 40.8252 93.2349 40.9131 93.2621 41.003C93.2893 41.0924 93.3121 41.1833 93.3301 41.2751C93.3486 41.3669 93.3622 41.4592 93.3714 41.5525C93.3806 41.6458 93.385 41.739 93.385 41.8328Z" fill="#08449E"/>
<path d="M96.2433 33.2582H90.5275C90.4989 32.8579 90.0699 30.3996 84.8118 30.3996C84.8118 30.3063 84.8161 30.2126 84.8254 30.1198C84.8346 30.0265 84.8482 29.9337 84.8667 29.8419C84.8846 29.7501 84.9075 29.6597 84.9347 29.5698C84.9619 29.4804 84.9935 29.3925 85.0289 29.306C85.0649 29.2195 85.1047 29.135 85.1489 29.0524C85.1931 28.9698 85.2412 28.8897 85.2932 28.8115C85.3452 28.7337 85.4011 28.6589 85.4603 28.5865C85.5196 28.5141 85.5823 28.4447 85.6484 28.3786C85.7149 28.3125 85.7839 28.2494 85.8563 28.1901C85.9287 28.1308 86.004 28.0749 86.0817 28.023C86.1595 27.971 86.2396 27.9229 86.3222 27.8787C86.4048 27.8345 86.4893 27.7946 86.5758 27.7587C86.6623 27.7232 86.7502 27.6916 86.8396 27.6644C86.9295 27.6372 87.0199 27.6144 87.1117 27.5964C87.2035 27.5779 87.2963 27.5643 87.3891 27.5551C87.4824 27.5459 87.5756 27.541 87.6694 27.541C92.928 27.541 93.3565 29.9998 93.3852 30.3996H95.6146C96.0218 31.3091 96.2311 32.2618 96.2433 33.2582Z" fill="#08449E"/>
<path d="M47.6585 50.4084H44.8009C44.5667 50.4084 44.333 50.403 44.0993 50.3914C43.8661 50.3797 43.6329 50.3627 43.4002 50.3399C43.1675 50.317 42.9353 50.2884 42.704 50.2539C42.4728 50.2194 42.2425 50.1795 42.0127 50.1339C41.7834 50.0882 41.5555 50.0372 41.3287 49.9803C41.1018 49.9235 40.8764 49.8608 40.6524 49.7933C40.4289 49.7253 40.2069 49.6519 39.9868 49.5732C39.7662 49.494 39.5481 49.41 39.3324 49.3206C39.1162 49.2312 38.9024 49.1365 38.6911 49.0364C38.4798 48.9363 38.2709 48.8314 38.0644 48.7211C37.8584 48.6108 37.6548 48.4952 37.4542 48.3752C37.2535 48.2547 37.0563 48.1298 36.862 47.9996C36.6672 47.8699 36.4762 47.7353 36.2882 47.5959C36.1007 47.4565 35.9161 47.3127 35.7353 47.1645C35.5546 47.0158 35.3778 46.8633 35.2043 46.7059C35.0309 46.5489 34.8618 46.3877 34.6966 46.2225C34.531 46.0568 34.3697 45.8877 34.2128 45.7143C34.0558 45.5409 33.9033 45.364 33.7546 45.1833C33.6064 45.0021 33.4626 44.8179 33.3232 44.6299C33.1838 44.4419 33.0492 44.251 32.9195 44.0567C32.7893 43.8618 32.6644 43.6646 32.5439 43.4639C32.4239 43.2633 32.3088 43.0597 32.1985 42.8533C32.0882 42.6473 31.9828 42.4384 31.8832 42.2265C31.7831 42.0152 31.6884 41.8014 31.599 41.5852C31.5091 41.3695 31.4251 41.1514 31.3464 40.9308C31.2677 40.7108 31.1943 40.4887 31.1263 40.2648C31.0588 40.0408 30.9961 39.8154 30.9392 39.5885C30.8824 39.3616 30.8314 39.1338 30.7857 38.9045C30.7401 38.6747 30.7002 38.4444 30.6657 38.2131C30.6312 37.9819 30.6031 37.7496 30.5797 37.5169C30.5569 37.2842 30.5399 37.051 30.5282 36.8173C30.5171 36.5837 30.5112 36.35 30.5112 36.1158C30.5112 35.8821 30.5171 35.648 30.5282 35.4148C30.5399 35.1811 30.5569 34.9479 30.5797 34.7147C30.6031 34.482 30.6312 34.2502 30.6657 34.0185C30.7002 33.7872 30.7401 33.5569 30.7857 33.3276C30.8314 33.0978 30.8824 32.87 30.9392 32.6431C30.9961 32.4162 31.0588 32.1908 31.1263 31.9668C31.1943 31.7429 31.2677 31.5208 31.3464 31.3008C31.4251 31.0807 31.5091 30.8625 31.599 30.6464C31.6884 30.4302 31.7831 30.2164 31.8832 30.0051C31.9828 29.7932 32.0882 29.5848 32.1985 29.3783C32.3088 29.1719 32.4239 28.9683 32.5439 28.7681C32.6644 28.5675 32.7893 28.3698 32.9195 28.1754C33.0492 27.9806 33.1838 27.7897 33.3232 27.6017C33.4626 27.4137 33.6064 27.2295 33.7546 27.0488C33.9033 26.8676 34.0558 26.6907 34.2128 26.5173C34.3697 26.3444 34.531 26.1748 34.6966 26.0091C34.8618 25.844 35.0309 25.6827 35.2043 25.5257C35.3778 25.3683 35.5546 25.2158 35.7353 25.0676C35.9161 24.9189 36.1007 24.7751 36.2882 24.6357C36.4762 24.4963 36.6672 24.3617 36.862 24.232C37.0563 24.1018 37.2535 23.9769 37.4542 23.8564C37.6548 23.7364 37.8584 23.6208 38.0644 23.511C38.2709 23.4007 38.4798 23.2953 38.6911 23.1952C38.9024 23.0951 39.1162 23.0004 39.3324 22.911C39.5481 22.8216 39.7662 22.7376 39.9868 22.6584C40.2069 22.5797 40.4289 22.5063 40.6524 22.4388C40.8764 22.3708 41.1018 22.3081 41.3287 22.2513C41.5555 22.1944 41.7834 22.1434 42.0127 22.0977C42.2425 22.0521 42.4728 22.0122 42.704 21.9777C42.9353 21.9437 43.1675 21.9151 43.4002 21.8917C43.6329 21.8689 43.8661 21.8519 44.0993 21.8402C44.333 21.8291 44.5667 21.8232 44.8009 21.8232H47.6585V27.54H44.8009C44.6605 27.54 44.5201 27.5439 44.3801 27.5507C44.2397 27.5575 44.0998 27.5677 43.9604 27.5813C43.8205 27.5954 43.6815 27.6124 43.5426 27.6333C43.4036 27.6537 43.2657 27.6775 43.1282 27.7052C42.9902 27.7324 42.8537 27.763 42.7176 27.797C42.5811 27.8315 42.4461 27.8689 42.312 27.9097C42.1774 27.95 42.0443 27.9942 41.9121 28.0413C41.78 28.089 41.6493 28.1395 41.5196 28.1929C41.3899 28.2469 41.2616 28.3037 41.1348 28.3635C41.008 28.4237 40.8827 28.4869 40.7588 28.5529C40.6354 28.619 40.5134 28.688 40.393 28.7604C40.2725 28.8323 40.1539 28.9076 40.0373 28.9853C39.9207 29.0635 39.8061 29.1442 39.6934 29.2277C39.5807 29.3113 39.4699 29.3978 39.3616 29.4867C39.2532 29.5756 39.1468 29.6674 39.0428 29.7617C38.9389 29.8559 38.8373 29.9526 38.7382 30.0522C38.6391 30.1513 38.542 30.2528 38.4477 30.3568C38.3539 30.4608 38.2621 30.5672 38.1732 30.6755C38.0838 30.7838 37.9978 30.8946 37.9143 31.0073C37.8307 31.12 37.7496 31.2347 37.6718 31.3513C37.5941 31.4684 37.5188 31.5869 37.4469 31.7069C37.3745 31.8274 37.3055 31.9493 37.2395 32.0732C37.1734 32.1971 37.1102 32.3225 37.05 32.4493C36.9902 32.5761 36.9334 32.7043 36.8795 32.834C36.826 32.9638 36.7755 33.0944 36.7279 33.2266C36.6808 33.3587 36.637 33.4923 36.5962 33.6264C36.5554 33.761 36.518 33.8961 36.484 34.0321C36.45 34.1681 36.4189 34.3051 36.3917 34.4426C36.3645 34.5806 36.3402 34.7186 36.3198 34.8575C36.2989 34.9965 36.2819 35.1354 36.2683 35.2753C36.2547 35.4148 36.244 35.5547 36.2372 35.6951C36.2304 35.8355 36.227 35.9754 36.227 36.1158C36.227 36.2562 36.2304 36.3966 36.2372 36.5365C36.244 36.6769 36.2547 36.8169 36.2683 36.9563C36.2819 37.0962 36.2989 37.2351 36.3198 37.3741C36.3402 37.513 36.3645 37.651 36.3917 37.789C36.4189 37.9265 36.45 38.0635 36.484 38.1995C36.518 38.3355 36.5554 38.4711 36.5962 38.6052C36.637 38.7398 36.6808 38.8729 36.7279 39.005C36.7755 39.1372 36.826 39.2679 36.8795 39.3976C36.9334 39.5273 36.9902 39.6555 37.05 39.7823C37.1102 39.9091 37.1734 40.0345 37.2395 40.1584C37.3055 40.2823 37.3745 40.4042 37.4469 40.5247C37.5188 40.6452 37.5941 40.7637 37.6718 40.8803C37.7496 40.9969 37.8307 41.1116 37.9143 41.2243C37.9978 41.337 38.0838 41.4478 38.1732 41.5561C38.2621 41.6644 38.3539 41.7708 38.4477 41.8748C38.542 41.9788 38.6391 42.0803 38.7382 42.1799C38.8373 42.279 38.9389 42.3757 39.0428 42.4699C39.1468 42.5642 39.2532 42.656 39.3616 42.7449C39.4699 42.8338 39.5807 42.9203 39.6934 43.0039C39.8061 43.0874 39.9207 43.1681 40.0373 43.2463C40.1539 43.324 40.2725 43.3993 40.393 43.4712C40.5134 43.5436 40.6354 43.6126 40.7593 43.6787C40.8827 43.7452 41.008 43.8079 41.1348 43.8682C41.2616 43.9279 41.3899 43.9847 41.5196 44.0387C41.6493 44.0926 41.78 44.1431 41.9121 44.1903C42.0443 44.2374 42.1774 44.2816 42.312 44.3224C42.4461 44.3627 42.5811 44.4006 42.7176 44.4346C42.8537 44.4686 42.9902 44.4992 43.1282 44.5269C43.2657 44.5541 43.4036 44.5779 43.5426 44.5988C43.6815 44.6192 43.8205 44.6362 43.9604 44.6503C44.0998 44.6639 44.2397 44.6741 44.3801 44.6809C44.5201 44.6882 44.6605 44.6916 44.8009 44.6916H47.6585V50.4084Z" fill="#F2F2F2"/>
<path d="M44.801 50.4094V53.268H41.9428C41.5707 53.268 41.1995 53.2534 40.8283 53.2248C40.4577 53.1956 40.0884 53.1524 39.7207 53.0941C39.3534 53.0363 38.9885 52.9644 38.6266 52.8779C38.2651 52.7914 37.9071 52.6913 37.5529 52.5772C37.1987 52.4625 36.8499 52.3347 36.5059 52.1934C36.162 52.0515 35.8238 51.897 35.492 51.7289C35.1597 51.5608 34.8347 51.3801 34.517 51.1867C34.1992 50.9934 33.8893 50.7879 33.5876 50.5702C33.2859 50.3526 32.9929 50.1237 32.7092 49.8833C32.425 49.6428 32.151 49.3916 31.8867 49.1297C31.6224 48.8679 31.3688 48.5963 31.1254 48.3145C30.8825 48.0327 30.6507 47.7422 30.4302 47.442C30.2101 47.1422 30.0017 46.8347 29.8054 46.5184C29.6091 46.2021 29.425 45.8791 29.254 45.5487C29.083 45.2183 28.9251 44.8817 28.7803 44.5387C28.6355 44.1962 28.5044 43.8483 28.3868 43.4951C28.2687 43.1424 28.1652 42.7853 28.0754 42.4239C27.9855 42.0629 27.9102 41.699 27.849 41.3317C27.7873 40.9649 27.7406 40.5957 27.7081 40.225C27.6755 39.8543 27.6576 39.4831 27.6537 39.111C27.6503 38.7389 27.6614 38.3672 27.6867 37.996C27.7125 37.6249 27.7523 37.2551 27.8067 36.8869C27.8611 36.5191 27.9296 36.1533 28.0127 35.7909C28.0953 35.4279 28.1925 35.0689 28.3032 34.7138C28.414 34.3586 28.5388 34.0084 28.6768 33.6629C28.8153 33.3175 28.9669 32.9779 29.1316 32.6441C29.2963 32.3109 29.4741 31.9839 29.6645 31.6642C29.8545 31.3446 30.0571 31.0327 30.2718 30.7285C30.4865 30.4249 30.7124 30.1295 30.9505 29.8434C31.1881 29.5572 31.4363 29.2808 31.6958 29.014C31.9552 28.7468 32.2243 28.4908 32.5037 28.245C32.783 27.9992 33.0716 27.7645 33.3689 27.541C32.9055 28.1541 32.4949 28.8008 32.1369 29.4804C31.7793 30.1606 31.4786 30.865 31.2357 31.5943C30.9928 32.323 30.8106 33.0673 30.6891 33.8262C30.5672 34.5845 30.5079 35.3483 30.5113 36.1168C30.5113 36.351 30.5171 36.5847 30.5283 36.8184C30.54 37.0521 30.557 37.2853 30.5798 37.518C30.6031 37.7507 30.6313 37.9829 30.6658 38.2142C30.7003 38.4454 30.7401 38.6757 30.7858 38.9055C30.8315 39.1348 30.8825 39.3627 30.9393 39.5895C30.9962 39.8164 31.0588 40.0418 31.1264 40.2658C31.1944 40.4898 31.2677 40.7118 31.3464 40.9319C31.4252 41.1524 31.5092 41.3706 31.5991 41.5863C31.6885 41.8025 31.7832 42.0162 31.8833 42.2276C31.9829 42.4394 32.0883 42.6483 32.1986 42.8543C32.3089 43.0608 32.424 43.2643 32.544 43.465C32.6645 43.6656 32.7894 43.8629 32.9196 44.0577C33.0493 44.252 33.1838 44.443 33.3233 44.631C33.4627 44.819 33.6065 45.0031 33.7547 45.1843C33.9034 45.3651 34.0559 45.5419 34.2128 45.7153C34.3698 45.8888 34.531 46.0578 34.6967 46.2235C34.8619 46.3887 35.031 46.55 35.2044 46.7069C35.3778 46.8643 35.5547 47.0169 35.7354 47.1655C35.9161 47.3137 36.1008 47.4575 36.2883 47.5969C36.4763 47.7364 36.6672 47.871 36.862 48.0007C37.0564 48.1309 37.2536 48.2557 37.4543 48.3762C37.6549 48.4962 37.8585 48.6118 38.0645 48.7221C38.2709 48.8324 38.4799 48.9373 38.6912 49.0374C38.9025 49.1375 39.1163 49.2322 39.3325 49.3216C39.5482 49.411 39.7663 49.4951 39.9869 49.5743C40.207 49.653 40.429 49.7263 40.6525 49.7943C40.8764 49.8619 41.1019 49.9245 41.3287 49.9814C41.5556 50.0382 41.7835 50.0892 42.0128 50.1349C42.2426 50.1806 42.4729 50.2204 42.7041 50.2549C42.9354 50.2894 43.1676 50.3181 43.4003 50.3409C43.633 50.3637 43.8662 50.3807 44.0994 50.3924C44.3331 50.4041 44.5668 50.4094 44.801 50.4094Z" fill="#08449E"/>
<path d="M44.8009 27.541V30.3996H41.9428C41.1558 30.3996 40.3838 30.506 39.6264 30.7198C38.869 30.9335 38.1553 31.2459 37.4844 31.6574C37.6753 31.3455 37.8852 31.0467 38.1145 30.7611C38.3433 30.4759 38.5896 30.2063 38.853 29.9522C39.1163 29.6986 39.3951 29.462 39.6886 29.2438C39.982 29.0252 40.2881 28.8265 40.6068 28.6468C40.926 28.4675 41.2549 28.3091 41.594 28.1716C41.9331 28.0341 42.2795 27.919 42.6332 27.8257C42.9869 27.7324 43.3449 27.662 43.7078 27.6144C44.0707 27.5668 44.4351 27.5425 44.8009 27.541Z" fill="#08449E"/>
</svg>
