<svg width="187" height="188" viewBox="0 0 187 188" fill="none" xmlns="http://www.w3.org/2000/svg">
<mask id="mask0_201_614" style="mask-type:luminance" maskUnits="userSpaceOnUse" x="137" y="3" width="36" height="36">
<path d="M137.165 3.77344H172.201V38.8482H137.165V3.77344Z" fill="white"/>
</mask>
<g mask="url(#mask0_201_614)">
<path d="M137.217 3.77344L172.175 38.7258H137.217V3.77344Z" fill="#FFAF36"/>
</g>
<mask id="mask1_201_614" style="mask-type:luminance" maskUnits="userSpaceOnUse" x="38" y="3" width="135" height="182">
<path d="M38.1626 3.77344H172.199V184.361H38.1626V3.77344Z" fill="white"/>
</mask>
<g mask="url(#mask1_201_614)">
<path d="M172.174 38.7258V184.361H38.1689V3.77344H137.216V38.7258H172.174Z" fill="#FF6D00"/>
</g>
<path d="M43.9961 27.0742V166.884C43.9961 167.075 44.001 167.265 44.0102 167.456C44.0199 167.646 44.0335 167.836 44.0524 168.026C44.0709 168.216 44.0942 168.405 44.1224 168.593C44.1506 168.782 44.1831 168.97 44.2201 169.157C44.2575 169.344 44.2993 169.53 44.3454 169.715C44.392 169.9 44.4426 170.083 44.498 170.266C44.5533 170.448 44.6131 170.629 44.6772 170.809C44.7418 170.988 44.8103 171.166 44.8832 171.343C44.9561 171.519 45.0333 171.693 45.115 171.865C45.1966 172.038 45.2821 172.208 45.372 172.376C45.4623 172.544 45.5561 172.71 45.6542 172.873C45.7524 173.037 45.8539 173.198 45.9603 173.357C46.0662 173.515 46.176 173.671 46.2892 173.824C46.4029 173.977 46.5205 174.128 46.6414 174.275C46.7624 174.423 46.8868 174.567 47.015 174.708C47.1428 174.849 47.2745 174.987 47.409 175.122C47.5441 175.257 47.6821 175.389 47.8234 175.517C47.9648 175.645 48.1091 175.769 48.2563 175.89C48.404 176.011 48.5541 176.129 48.7076 176.242C48.8607 176.355 49.0166 176.465 49.175 176.571C49.3334 176.677 49.4947 176.779 49.6584 176.877C49.8217 176.975 49.9878 177.069 50.1559 177.159C50.324 177.249 50.4945 177.335 50.667 177.416C50.839 177.498 51.0134 177.575 51.1897 177.648C51.3656 177.721 51.5439 177.79 51.7232 177.854C51.9029 177.918 52.0837 177.978 52.2663 178.033C52.449 178.088 52.6326 178.139 52.8177 178.186C53.0024 178.232 53.1884 178.274 53.3755 178.311C53.5625 178.348 53.7505 178.381 53.939 178.409C54.1275 178.437 54.317 178.46 54.507 178.478C54.6964 178.497 54.8869 178.512 55.0773 178.521C55.2678 178.53 55.4582 178.535 55.6487 178.535H154.696C154.887 178.535 155.078 178.53 155.268 178.521C155.459 178.512 155.648 178.497 155.838 178.478C156.028 178.46 156.217 178.437 156.406 178.409C156.595 178.381 156.782 178.348 156.969 178.311C157.156 178.274 157.343 178.232 157.528 178.186C157.713 178.139 157.896 178.088 158.079 178.033C158.261 177.978 158.442 177.918 158.622 177.854C158.802 177.79 158.979 177.721 159.156 177.648C159.332 177.575 159.506 177.498 159.678 177.416C159.851 177.335 160.021 177.249 160.19 177.159C160.358 177.069 160.523 176.975 160.687 176.877C160.851 176.779 161.012 176.677 161.17 176.571C161.329 176.465 161.485 176.355 161.638 176.242C161.791 176.129 161.941 176.011 162.089 175.89C162.236 175.769 162.381 175.645 162.522 175.517C162.663 175.389 162.801 175.257 162.936 175.122C163.071 174.987 163.202 174.849 163.33 174.708C163.459 174.567 163.583 174.423 163.704 174.275C163.825 174.128 163.942 173.977 164.056 173.824C164.169 173.671 164.279 173.515 164.385 173.357C164.491 173.198 164.593 173.037 164.691 172.873C164.789 172.71 164.883 172.544 164.973 172.376C165.063 172.208 165.149 172.038 165.23 171.865C165.312 171.693 165.389 171.519 165.462 171.343C165.535 171.166 165.604 170.988 165.668 170.809C165.732 170.629 165.792 170.448 165.847 170.266C165.902 170.083 165.953 169.9 166 169.715C166.046 169.53 166.088 169.344 166.125 169.157C166.162 168.97 166.195 168.782 166.223 168.593C166.251 168.405 166.274 168.216 166.293 168.026C166.311 167.836 166.326 167.646 166.335 167.456C166.344 167.265 166.349 167.075 166.349 166.884V160.7C43.9961 153.162 43.9961 27.0742 43.9961 27.0742Z" fill="#F54E00"/>
<mask id="mask2_201_614" style="mask-type:luminance" maskUnits="userSpaceOnUse" x="140" y="38" width="33" height="7">
<path d="M140.023 38.7227H172.199V44.5681H140.023V38.7227Z" fill="white"/>
</mask>
<g mask="url(#mask2_201_614)">
<path d="M140.129 38.7236H172.174V44.5492H140.129V38.7236Z" fill="#F54E00"/>
</g>
<mask id="mask3_201_614" style="mask-type:luminance" maskUnits="userSpaceOnUse" x="14" y="12" width="106" height="48">
<path d="M14.8391 12.4805H119.752V59.1199H14.8391V12.4805Z" fill="white"/>
</mask>
<g mask="url(#mask3_201_614)">
<path d="M14.865 12.5098H119.739V59.1128H14.865V12.5098Z" fill="#F54100"/>
</g>
<path d="M38.1699 59.1133H113.912V67.8514H38.1699V59.1133Z" fill="#D63900"/>
<path d="M102.26 44.5508V21.249H96.4331V47.4633C96.4331 47.5585 96.438 47.6538 96.4472 47.749C96.4569 47.8437 96.4705 47.938 96.4895 48.0317C96.5079 48.125 96.5312 48.2173 96.5589 48.3086C96.5866 48.4 96.6187 48.4899 96.6551 48.5778C96.6916 48.6662 96.7324 48.7522 96.7771 48.8363C96.8223 48.9203 96.8713 49.0024 96.9243 49.0816C96.9772 49.1608 97.0341 49.2375 97.0948 49.3109C97.155 49.3848 97.2192 49.4552 97.2867 49.5227C97.3542 49.5903 97.4247 49.6544 97.4985 49.7146C97.5724 49.7754 97.6486 49.8322 97.7278 49.8852C97.8075 49.9381 97.8891 49.9872 97.9732 50.0319C98.0572 50.0771 98.1437 50.1179 98.2316 50.1543C98.3196 50.1907 98.4095 50.2228 98.5008 50.2505C98.5921 50.2782 98.6844 50.3015 98.7782 50.32C98.872 50.3384 98.9662 50.3525 99.0609 50.3618C99.1557 50.3715 99.2509 50.3758 99.3466 50.3758H110.999V44.5508H102.26Z" fill="white"/>
<path d="M38.1701 32.8997H29.4305V21.249H23.604V50.3758H29.4305V38.7252H38.1701V50.3758H43.9961V21.249H38.1701V32.8997Z" fill="white"/>
<path d="M46.9097 27.0746H52.7357V50.3758H58.5622V27.0746H64.3883V21.249H46.9097V27.0746Z" fill="white"/>
<path d="M88.2764 21.3096C88.1132 21.2751 87.9485 21.2547 87.7818 21.2489C87.6152 21.243 87.4495 21.2513 87.2843 21.2737C87.1191 21.2965 86.9574 21.3334 86.7985 21.3839C86.6401 21.4345 86.4866 21.4986 86.3389 21.5758C86.1912 21.6526 86.0513 21.742 85.9187 21.8435C85.7865 21.9446 85.6641 22.0568 85.5509 22.1792C85.4382 22.3017 85.3366 22.4328 85.2463 22.5732C85.1559 22.7132 85.0787 22.8599 85.0136 23.0134L78.9543 37.1544L72.8922 23.0134C72.8261 22.8604 72.7484 22.7141 72.6575 22.5747C72.5667 22.4353 72.4646 22.3041 72.3514 22.1822C72.2387 22.0602 72.1158 21.9485 71.9837 21.8474C71.8515 21.7464 71.7116 21.6575 71.5639 21.5802C71.4162 21.503 71.2632 21.4393 71.1048 21.3883C70.9464 21.3373 70.7847 21.3004 70.62 21.2775C70.4548 21.2542 70.2896 21.2455 70.123 21.2503C69.9568 21.2557 69.7921 21.2751 69.6289 21.3086C69.4656 21.3422 69.3068 21.3893 69.1518 21.45C68.9968 21.5107 68.8481 21.5841 68.7058 21.6701C68.5635 21.7566 68.4294 21.8542 68.3035 21.9635C68.1782 22.0724 68.0626 22.1914 67.9576 22.3206C67.8522 22.4494 67.7589 22.5864 67.6768 22.7316C67.5952 22.8764 67.5262 23.0275 67.4703 23.1844C67.4145 23.3409 67.3727 23.5012 67.344 23.6654C67.3158 23.8291 67.3018 23.9948 67.3018 24.1609V50.3752H73.1278V38.352L76.2769 45.6977C76.3328 45.8279 76.3979 45.9532 76.4722 46.0742C76.5461 46.1947 76.6287 46.3093 76.72 46.4181C76.8109 46.527 76.909 46.6285 77.0149 46.7228C77.1208 46.817 77.2326 46.903 77.3511 46.9812C77.4692 47.059 77.5926 47.1279 77.7213 47.1882C77.8496 47.2479 77.9817 47.2985 78.1173 47.3393C78.2533 47.3801 78.3913 47.4107 78.5312 47.4311C78.6716 47.4515 78.8125 47.4617 78.9543 47.4617C79.0957 47.4617 79.2371 47.4515 79.377 47.4311C79.5174 47.4107 79.6554 47.3801 79.7909 47.3393C79.927 47.2985 80.0591 47.2479 80.1874 47.1882C80.3156 47.1279 80.439 47.059 80.5576 46.9812C80.6756 46.903 80.7878 46.817 80.8938 46.7228C80.9992 46.6285 81.0978 46.527 81.1887 46.4181C81.2795 46.3093 81.3621 46.1947 81.4364 46.0742C81.5103 45.9532 81.5754 45.8279 81.6312 45.6977L84.7804 38.352V50.3752H90.6069V24.1609C90.6069 23.9943 90.5923 23.8291 90.5642 23.6654C90.5355 23.5012 90.4932 23.3409 90.4374 23.1839C90.381 23.027 90.3125 22.8759 90.2304 22.7311C90.1483 22.5864 90.055 22.4494 89.9496 22.3201C89.8442 22.1914 89.7285 22.0724 89.6027 21.963C89.4769 21.8542 89.3428 21.7566 89.2004 21.6706C89.0576 21.5841 88.9089 21.5107 88.754 21.4505C88.5985 21.3898 88.4396 21.3426 88.2764 21.3096Z" fill="white"/>
<path d="M73.1279 146.495L49.8228 120.281L73.1279 94.0664H84.7805L61.4753 120.281L84.7805 146.495H73.1279Z" fill="white"/>
<path d="M137.217 146.495L160.523 120.281L137.217 94.0664H125.565L148.87 120.281L125.565 146.495H137.217Z" fill="white"/>
<path d="M93.52 146.495L108.086 94.0664H116.825L102.26 146.495H93.52Z" fill="white"/>
<path d="M49.8226 120.281L67.9484 99.8916H67.3017L43.9961 126.106L67.3017 152.321H78.9543L73.7744 146.495H73.1278L49.8226 120.281Z" fill="#D63900"/>
<path d="M148.87 120.281L130.745 99.8916H119.739L143.044 126.106L119.739 152.321H131.391L136.571 146.495H125.565L148.87 120.281Z" fill="#D63900"/>
<path d="M106.466 99.8916H102.259L87.6938 152.321H96.4329L98.0527 146.495H93.5199L106.466 99.8916Z" fill="#D63900"/>
<path d="M96.433 47.4629V24.1611H93.52V50.3754C93.52 50.4711 93.5249 50.5663 93.5341 50.6611C93.5433 50.7558 93.5574 50.8501 93.5759 50.9438C93.5948 51.0376 93.6177 51.1299 93.6454 51.2212C93.6731 51.3126 93.7051 51.402 93.742 51.4904C93.7785 51.5783 93.8193 51.6643 93.864 51.7488C93.9092 51.8329 93.9582 51.9145 94.0112 51.9937C94.0641 52.0729 94.121 52.1497 94.1812 52.2235C94.242 52.2973 94.3061 52.3678 94.3731 52.4353C94.4407 52.5029 94.5116 52.5665 94.585 52.6272C94.6588 52.6875 94.7356 52.7443 94.8147 52.7973C94.8939 52.8502 94.976 52.8993 95.0601 52.9445C95.1441 52.9892 95.2301 53.03 95.3186 53.0664C95.4065 53.1028 95.4964 53.1354 95.5877 53.1631C95.679 53.1908 95.7713 53.2136 95.8651 53.2321C95.9584 53.251 96.0526 53.2651 96.1479 53.2743C96.2426 53.2836 96.3378 53.2884 96.433 53.2884H108.086V50.3754H99.3465C99.2508 50.3754 99.1556 50.371 99.0609 50.3613C98.9661 50.3521 98.8719 50.338 98.7781 50.3195C98.6844 50.3011 98.5921 50.2778 98.5007 50.2501C98.4094 50.2224 98.3195 50.1903 98.2316 50.1539C98.1436 50.1174 98.0572 50.0766 97.9731 50.0314C97.8891 49.9868 97.8074 49.9377 97.7278 49.8847C97.6486 49.8318 97.5723 49.7749 97.4985 49.7142C97.4246 49.654 97.3542 49.5898 97.2866 49.5223C97.2191 49.4548 97.155 49.3843 97.0947 49.3105C97.034 49.2371 96.9772 49.1604 96.9242 49.0812C96.8713 49.002 96.8222 48.9199 96.777 48.8358C96.7323 48.7518 96.6915 48.6658 96.6551 48.5774C96.6186 48.4894 96.5866 48.3996 96.5589 48.3082C96.5312 48.2169 96.5079 48.1246 96.4894 48.0313C96.4705 47.9375 96.4568 47.8433 96.4471 47.7485C96.4379 47.6533 96.433 47.5581 96.433 47.4629Z" fill="#D63900"/>
<path d="M35.2573 24.1611H38.1703V32.8992H35.2573V24.1611Z" fill="#D63900"/>
<path d="M23.6042 24.1611H20.6912V53.2884H26.5177V50.3754H23.6042V24.1611Z" fill="#D63900"/>
<path d="M38.1702 38.7256H29.4307V41.6381H35.2572V53.2892H41.0832V50.3762H38.1702V38.7256Z" fill="#D63900"/>
<path d="M58.5623 27.0742H61.4753V29.9868H58.5623V27.0742Z" fill="#D63900"/>
<path d="M52.7356 27.0742H46.9096V24.1611H43.9961V29.9867H49.8226V53.2884H55.6487V50.3754H52.7356V27.0742Z" fill="#D63900"/>
<path d="M67.3019 24.2011C67.1066 24.1861 66.9128 24.1929 66.7189 24.2215C66.5562 24.2551 66.3968 24.3017 66.2419 24.3624C66.0864 24.4232 65.9377 24.4965 65.7954 24.5825C65.6526 24.6685 65.5185 24.7662 65.3926 24.8755C65.2668 24.9843 65.1512 25.1033 65.0458 25.2326C64.9408 25.3613 64.847 25.4983 64.7649 25.6431C64.6833 25.7883 64.6143 25.9389 64.5585 26.0959C64.5021 26.2528 64.4598 26.4131 64.4317 26.5773C64.403 26.7415 64.3889 26.9067 64.3884 27.0734V53.2876H70.215V50.3746H67.3019V24.2011Z" fill="#D63900"/>
<path d="M84.5129 24.1895C84.3827 24.2016 84.2544 24.222 84.1276 24.2512C84.0003 24.2803 83.876 24.3177 83.754 24.3634C83.6316 24.4095 83.5135 24.4635 83.3984 24.5252C83.2837 24.5869 83.1735 24.6558 83.068 24.7326C82.9626 24.8089 82.8625 24.8924 82.7683 24.9823C82.674 25.0722 82.5861 25.1679 82.5045 25.2699C82.4229 25.3715 82.349 25.4784 82.2815 25.5901C82.2144 25.7018 82.1552 25.8175 82.1037 25.937L78.1213 35.2289L78.9545 37.1683L84.5129 24.1895Z" fill="#D63900"/>
<path d="M76.2771 45.6992L73.1279 38.3535V48.0467L73.364 48.5972C73.4199 48.7274 73.485 48.8532 73.5593 48.9737C73.6332 49.0947 73.7158 49.2093 73.8066 49.3177C73.898 49.4265 73.9961 49.528 74.102 49.6223C74.2074 49.7165 74.3197 49.803 74.4382 49.8807C74.5563 49.959 74.6797 50.028 74.8079 50.0877C74.9367 50.148 75.0683 50.198 75.2044 50.2388C75.3399 50.2796 75.4779 50.3102 75.6183 50.3306C75.7587 50.3515 75.8996 50.3617 76.041 50.3617C76.1828 50.3617 76.3237 50.3515 76.4641 50.3306C76.6045 50.3102 76.7425 50.2796 76.878 50.2388C77.0141 50.198 77.1457 50.148 77.2745 50.0877C77.4027 50.028 77.5261 49.959 77.6442 49.8807C77.7627 49.803 77.875 49.7165 77.9804 49.6223C78.0863 49.528 78.1844 49.4265 78.2758 49.3177C78.3666 49.2093 78.4492 49.0947 78.523 48.9737C78.5974 48.8532 78.6625 48.7274 78.7183 48.5972L79.228 47.4089C79.1352 47.4089 79.0477 47.4497 78.9545 47.4497C78.8131 47.4501 78.6722 47.4399 78.5323 47.42C78.3924 47.3996 78.2549 47.3695 78.1193 47.3292C77.9838 47.2889 77.8521 47.2393 77.7239 47.18C77.5956 47.1203 77.4722 47.0523 77.3541 46.9745C77.2356 46.8973 77.1234 46.8118 77.018 46.718C76.912 46.6247 76.8134 46.5237 76.7221 46.4158C76.6312 46.3075 76.5482 46.1938 76.4738 46.0738C76.399 45.9533 76.3334 45.8289 76.2771 45.6992Z" fill="#D63900"/>
<path d="M84.7805 38.3535L81.8674 45.1488V53.2898H87.694V50.3768H84.7805V38.3535Z" fill="#D63900"/>
</svg>
