<svg width="188" height="189" viewBox="0 0 188 189" fill="none" xmlns="http://www.w3.org/2000/svg">
<g filter="url(#filter0_d_201_78)">
<mask id="mask0_201_78" style="mask-type:luminance" maskUnits="userSpaceOnUse" x="6" y="5" width="176" height="176">
<path d="M6.3855 5.71289H181.563V180.891H6.3855V5.71289Z" fill="white"/>
</mask>
<g mask="url(#mask0_201_78)">
<path d="M6.3855 5.71289H181.563V180.891H6.3855V5.71289Z" fill="#FFD600"/>
</g>
<path d="M120.923 136.837C124.29 142.306 127.95 147.547 135.701 147.547C142.212 147.547 145.628 144.311 145.628 139.834C145.628 134.477 142.095 132.574 134.932 129.455L131.005 127.781C119.672 122.974 112.135 116.95 112.135 104.225C112.135 92.4974 121.113 83.5732 135.141 83.5732C145.131 83.5732 152.309 87.0328 157.486 96.0935L145.253 103.913C142.562 99.1056 139.652 97.2128 135.141 97.2128C130.538 97.2128 127.624 100.118 127.624 103.913C127.624 108.604 130.543 110.502 137.282 113.407L141.209 115.081C154.567 120.769 162.099 126.579 162.099 139.64C162.099 153.713 150.985 161.425 136.066 161.425C121.473 161.425 113.186 154.102 108.573 145.036L120.923 136.837ZM64.5448 137.236C67.0069 141.645 70.7493 145.036 76.1308 145.036C81.2791 145.036 84.2426 143.002 84.2426 135.095V83.5684H100.461V137.587C100.461 153.97 90.9578 161.425 77.0796 161.425C64.5399 161.425 55.4889 152.929 51.8005 145.036L64.5448 137.236Z" fill="#000001"/>
</g>
<defs>
<filter id="filter0_d_201_78" x="-3.32666" y="0" width="194.558" height="194.558" filterUnits="userSpaceOnUse" color-interpolation-filters="sRGB">
<feFlood flood-opacity="0" result="BackgroundImageFix"/>
<feColorMatrix in="SourceAlpha" type="matrix" values="0 0 0 0 0 0 0 0 0 0 0 0 0 0 0 0 0 0 127 0" result="hardAlpha"/>
<feOffset dy="4"/>
<feGaussianBlur stdDeviation="2"/>
<feComposite in2="hardAlpha" operator="out"/>
<feColorMatrix type="matrix" values="0 0 0 0 0 0 0 0 0 0 0 0 0 0 0 0 0 0 0.25 0"/>
<feBlend mode="normal" in2="BackgroundImageFix" result="effect1_dropShadow_201_78"/>
<feBlend mode="normal" in="SourceGraphic" in2="effect1_dropShadow_201_78" result="shape"/>
</filter>
</defs>
</svg>
