<svg width="187" height="188" viewBox="0 0 187 188" fill="none" xmlns="http://www.w3.org/2000/svg">
<mask id="mask0_201_198" style="mask-type:luminance" maskUnits="userSpaceOnUse" x="154" y="86" width="30" height="33">
<path d="M154.47 86.374H183.33V118.959H154.47V86.374Z" fill="white"/>
</mask>
<g mask="url(#mask0_201_198)">
<path d="M168.917 86.377C168.478 86.377 168.051 86.4673 167.674 86.6811L155.732 93.5808C154.959 94.0263 154.49 94.8678 154.49 95.7627V109.538C154.49 110.432 154.959 111.273 155.732 111.719L158.851 113.517C160.366 114.265 160.925 114.253 161.615 114.253C163.858 114.253 165.138 112.891 165.138 110.524V96.9325C165.138 96.7406 164.972 96.6031 164.784 96.6031H163.288C163.096 96.6031 162.933 96.744 162.933 96.9325V110.53C162.933 111.579 161.841 112.634 160.068 111.747L156.826 109.845C156.711 109.783 156.623 109.668 156.623 109.541V95.7656C156.623 95.6349 156.71 95.5018 156.826 95.4357L168.743 88.5607C168.854 88.4966 168.988 88.4966 169.098 88.5607L181.015 95.4357C181.128 95.5037 181.218 95.631 181.218 95.7656V109.541C181.218 109.672 181.152 109.807 181.04 109.871L169.098 116.746C168.992 116.807 168.852 116.807 168.743 116.746L165.675 114.919C165.583 114.866 165.459 114.87 165.371 114.919C164.524 115.399 164.365 115.455 163.571 115.731C163.375 115.799 163.077 115.905 163.673 116.239L167.679 118.601C168.06 118.821 168.485 118.93 168.921 118.93C169.364 118.93 169.782 118.825 170.164 118.601L182.106 111.725C182.879 111.276 183.349 110.439 183.349 109.544V95.769C183.349 94.8741 182.879 94.0346 182.106 93.5871L170.164 86.6874C169.79 86.4736 169.36 86.3833 168.921 86.3833L168.917 86.377ZM172.111 96.2198C168.711 96.2198 166.686 97.6681 166.686 100.076C166.686 102.685 168.696 103.406 171.959 103.728C175.864 104.111 176.169 104.685 176.169 105.453C176.169 106.788 175.106 107.356 172.593 107.356C169.437 107.356 168.744 106.568 168.511 104.994C168.484 104.825 168.354 104.69 168.182 104.69H166.631C166.585 104.691 166.54 104.7 166.497 104.719C166.454 104.737 166.416 104.763 166.383 104.796C166.35 104.829 166.324 104.867 166.306 104.91C166.287 104.953 166.278 104.998 166.277 105.045C166.277 107.055 167.37 109.433 172.59 109.433C176.369 109.433 178.549 107.953 178.549 105.349C178.549 102.775 176.788 102.079 173.122 101.594C169.422 101.1 169.066 100.864 169.066 99.9957C169.066 99.2791 169.365 98.321 172.109 98.321C174.559 98.321 175.464 98.8501 175.836 100.503C175.868 100.658 176.005 100.785 176.165 100.785H177.716C177.811 100.785 177.903 100.726 177.97 100.658C178.034 100.585 178.08 100.503 178.071 100.404C177.832 97.5573 175.934 96.2184 172.112 96.2184L172.111 96.2198Z" fill="#83CD29"/>
</g>
<mask id="mask1_201_198" style="mask-type:luminance" maskUnits="userSpaceOnUse" x="3" y="68" width="143" height="52">
<path d="M3.20654 68.2168H145.14V119.209H3.20654V68.2168Z" fill="white"/>
</mask>
<g mask="url(#mask1_201_198)">
<path d="M98.7065 68.3194C98.5709 68.3199 98.4441 68.3534 98.3261 68.4209C98.2687 68.4549 98.2163 68.4952 98.1691 68.5424C98.122 68.59 98.0822 68.6425 98.0487 68.7003C98.0151 68.7581 97.9899 68.8193 97.9724 68.8839C97.9554 68.948 97.9461 69.0141 97.9461 69.0807V88.4871C97.9461 88.6775 97.8572 88.848 97.6921 88.9437C97.6099 88.9918 97.521 89.0156 97.4258 89.0156C97.3306 89.0156 97.2422 88.9918 97.1596 88.9437L93.99 87.1175C93.8749 87.0505 93.7525 86.9999 93.6232 86.965C93.4945 86.9305 93.3633 86.913 93.2297 86.913C93.0961 86.913 92.965 86.9305 92.8357 86.965C92.707 86.9999 92.5845 87.0505 92.4689 87.1175L79.818 94.4234C79.3448 94.6959 79.0567 95.2216 79.0567 95.7677V110.379C79.0562 110.513 79.0737 110.645 79.1082 110.774C79.1427 110.903 79.1932 111.026 79.2598 111.141C79.3268 111.257 79.4074 111.362 79.5017 111.456C79.5964 111.551 79.7014 111.632 79.8175 111.698L92.4699 119.004C92.585 119.072 92.7075 119.122 92.8367 119.157C92.9654 119.192 93.0966 119.209 93.2302 119.209C93.3638 119.209 93.495 119.192 93.6242 119.157C93.753 119.122 93.8754 119.072 93.991 119.004L106.643 111.698C106.759 111.632 106.864 111.551 106.959 111.456C107.053 111.362 107.134 111.257 107.201 111.141C107.268 111.026 107.318 110.903 107.353 110.774C107.387 110.645 107.404 110.513 107.404 110.379V73.9511C107.404 73.3968 107.102 72.8769 106.618 72.6068L99.0873 68.3937C98.9688 68.3281 98.8381 68.3165 98.7069 68.3174L98.7065 68.3194ZM17.3158 86.5588C17.0743 86.569 16.8479 86.6108 16.6312 86.7366L3.97932 94.0425C3.86321 94.109 3.75827 94.1897 3.66354 94.2839C3.5688 94.3787 3.48815 94.4836 3.42159 94.5992C3.35455 94.7154 3.30402 94.8378 3.27002 94.967C3.23552 95.0963 3.21852 95.2279 3.219 95.3615L3.24475 114.971C3.24475 115.244 3.38564 115.498 3.62516 115.631C3.8603 115.772 4.15179 115.772 4.38548 115.631L11.8905 111.318C12.3667 111.036 12.6766 110.544 12.6766 109.999V100.841C12.6766 100.294 12.9637 99.7932 13.4379 99.5217L16.6327 97.6702C16.8678 97.5332 17.121 97.4656 17.393 97.4671C17.6651 97.4651 17.9187 97.5332 18.1538 97.6702L21.3472 99.5207C21.8209 99.7923 22.108 100.294 22.108 100.839V109.997C22.108 110.542 22.4252 111.037 22.8936 111.316L30.3986 115.629C30.6347 115.77 30.9257 115.77 31.1594 115.629C31.3917 115.495 31.5398 115.242 31.5398 114.97L31.5651 95.3601C31.5661 95.226 31.5491 95.0948 31.5151 94.9651C31.4806 94.8358 31.4305 94.7134 31.3635 94.5973C31.2964 94.4817 31.2158 94.3763 31.121 94.282C31.0263 94.1878 30.9209 94.1071 30.8048 94.041L18.1529 86.7376C17.9391 86.6122 17.7112 86.57 17.4683 86.5598H17.3167L17.3158 86.5588ZM131.008 86.7366C130.736 86.7361 130.482 86.8037 130.247 86.9397L117.594 94.2461C117.122 94.5191 116.833 95.0185 116.833 95.5646V110.176C116.833 110.726 117.143 111.223 117.619 111.495L130.17 118.652C130.633 118.917 131.199 118.937 131.666 118.677L139.273 114.44C139.514 114.306 139.677 114.056 139.678 113.781C139.678 113.506 139.535 113.258 139.297 113.122L126.568 105.816C126.33 105.68 126.163 105.404 126.163 105.131V100.561C126.163 100.288 126.332 100.038 126.568 99.9021L130.524 97.6187C130.759 97.4826 131.048 97.4826 131.285 97.6187L135.249 99.9021C135.307 99.9351 135.36 99.9754 135.407 100.023C135.454 100.07 135.495 100.123 135.528 100.18C135.562 100.238 135.587 100.299 135.604 100.364C135.621 100.429 135.63 100.494 135.63 100.561V104.163C135.629 104.23 135.638 104.296 135.655 104.36C135.673 104.425 135.698 104.486 135.731 104.544C135.764 104.602 135.805 104.655 135.852 104.702C135.899 104.749 135.952 104.789 136.01 104.823C136.247 104.96 136.534 104.96 136.771 104.823L144.351 100.409C144.822 100.135 145.112 99.6339 145.112 99.0898V95.5641C145.112 95.4305 145.095 95.2993 145.061 95.1701C145.026 95.0409 144.975 94.9184 144.909 94.8028C144.842 94.6867 144.761 94.5818 144.667 94.487C144.572 94.3928 144.467 94.3121 144.351 94.2451L131.775 86.9392C131.54 86.8027 131.287 86.7352 131.014 86.7361L131.008 86.7366ZM93.1773 97.6454C93.2492 97.6449 93.3167 97.6619 93.3803 97.6959L97.7159 100.207C97.8334 100.275 97.9189 100.401 97.9189 100.537V105.56C97.9189 105.696 97.8344 105.822 97.7159 105.889L93.3803 108.401C93.2623 108.468 93.118 108.468 92.9994 108.401L88.6639 105.889C88.5459 105.821 88.4608 105.696 88.4608 105.56V100.538C88.4608 100.402 88.5463 100.278 88.6639 100.209L92.9994 97.6974C93.0587 97.6634 93.1112 97.6473 93.1773 97.6473V97.6454Z" fill="#404137"/>
</g>
<path d="M55.3242 86.6611C55.0521 86.6606 54.7985 86.7282 54.5629 86.8642L41.9105 94.1448C41.4378 94.4179 41.1502 94.9435 41.1502 95.4891V110.101C41.1497 110.234 41.1667 110.366 41.2012 110.495C41.2357 110.625 41.2862 110.747 41.3527 110.863C41.4198 110.979 41.5004 111.084 41.5947 111.178C41.6894 111.273 41.7948 111.353 41.9105 111.419L54.5629 118.726C54.6785 118.793 54.8005 118.844 54.9297 118.878C55.0584 118.913 55.1901 118.931 55.3237 118.931C55.4568 118.931 55.5885 118.913 55.7172 118.878C55.8464 118.844 55.9684 118.793 56.084 118.726L68.7364 111.419C68.852 111.353 68.9575 111.272 69.0517 111.178C69.1464 111.083 69.2271 110.978 69.2937 110.862C69.3607 110.747 69.4112 110.624 69.4457 110.495C69.4802 110.366 69.4972 110.234 69.4972 110.101V95.4896C69.4972 94.9435 69.2096 94.4179 68.7359 94.1453L56.0835 86.8647C55.8484 86.7282 55.5948 86.6606 55.3227 86.6616L55.3242 86.6611ZM130.985 99.7003C130.934 99.7003 130.878 99.7003 130.832 99.725L128.398 101.146C128.352 101.171 128.315 101.207 128.288 101.252C128.261 101.298 128.247 101.347 128.246 101.399V104.19C128.246 104.295 128.307 104.391 128.398 104.444L130.832 105.839C130.875 105.865 130.921 105.879 130.971 105.879C131.021 105.879 131.068 105.865 131.111 105.839L133.545 104.444C133.635 104.392 133.697 104.295 133.697 104.19V101.399C133.697 101.294 133.635 101.199 133.545 101.146L131.111 99.7246C131.066 99.6978 131.035 99.6998 130.984 99.6998L130.985 99.7003Z" fill="#83CD29"/>
</svg>
