<svg width="187" height="188" viewBox="0 0 187 188" fill="none" xmlns="http://www.w3.org/2000/svg">
<path d="M109.242 93.819C109.242 94.0746 109.236 94.3306 109.223 94.5856C109.211 94.8412 109.192 95.0963 109.167 95.3508C109.142 95.6054 109.111 95.8595 109.073 96.1121C109.036 96.3652 108.992 96.6174 108.942 96.8681C108.892 97.1192 108.836 97.3685 108.774 97.6167C108.712 97.865 108.644 98.1113 108.569 98.3562C108.495 98.601 108.415 98.8434 108.329 99.0844C108.242 99.3254 108.151 99.5639 108.053 99.8C107.955 100.037 107.851 100.27 107.742 100.502C107.633 100.733 107.518 100.961 107.397 101.187C107.277 101.412 107.151 101.635 107.019 101.854C106.887 102.074 106.751 102.29 106.609 102.502C106.467 102.715 106.32 102.924 106.167 103.129C106.015 103.335 105.858 103.537 105.695 103.734C105.533 103.932 105.366 104.126 105.194 104.315C105.022 104.505 104.847 104.69 104.665 104.871C104.485 105.052 104.299 105.228 104.11 105.4C103.921 105.572 103.727 105.739 103.529 105.901C103.332 106.063 103.13 106.22 102.925 106.373C102.719 106.525 102.51 106.673 102.297 106.814C102.085 106.957 101.869 107.093 101.649 107.225C101.43 107.357 101.208 107.482 100.982 107.603C100.757 107.724 100.529 107.839 100.297 107.948C100.066 108.058 99.8323 108.161 99.5962 108.259C99.3596 108.357 99.1211 108.449 98.8806 108.535C98.6396 108.621 98.3967 108.701 98.1523 108.776C97.9075 108.85 97.6611 108.918 97.4129 108.98C97.1646 109.042 96.9154 109.098 96.6647 109.148C96.4135 109.198 96.1619 109.242 95.9088 109.28C95.6561 109.317 95.4021 109.348 95.1475 109.373C94.8934 109.399 94.6383 109.417 94.3828 109.43C94.1272 109.442 93.8717 109.449 93.6161 109.449C93.3601 109.449 93.1046 109.442 92.8495 109.43C92.594 109.417 92.3389 109.399 92.0843 109.373C91.8298 109.348 91.5762 109.317 91.323 109.28C91.0704 109.242 90.8183 109.198 90.5676 109.148C90.3169 109.098 90.0672 109.042 89.8194 108.98C89.5711 108.918 89.3248 108.85 89.08 108.776C88.8351 108.701 88.5927 108.621 88.3517 108.535C88.1107 108.449 87.8722 108.357 87.6361 108.259C87.4 108.161 87.1663 108.058 86.935 107.948C86.7038 107.839 86.4755 107.724 86.25 107.603C86.0246 107.482 85.8021 107.357 85.5825 107.225C85.3634 107.093 85.1472 106.957 84.9344 106.814C84.7221 106.673 84.5127 106.525 84.3077 106.373C84.1022 106.22 83.9006 106.063 83.7028 105.901C83.5051 105.739 83.3117 105.572 83.1223 105.4C82.9328 105.228 82.7477 105.052 82.5665 104.871C82.3858 104.69 82.2094 104.505 82.0379 104.315C81.8659 104.126 81.6993 103.932 81.537 103.734C81.3748 103.537 81.2173 103.335 81.0648 103.129C80.9127 102.924 80.7655 102.715 80.6232 102.502C80.4813 102.29 80.3443 102.074 80.2131 101.854C80.0815 101.635 79.9556 101.412 79.8352 101.187C79.7142 100.961 79.5995 100.733 79.4902 100.502C79.3809 100.27 79.2769 100.037 79.1793 99.8C79.0816 99.5639 78.9893 99.3254 78.9033 99.0844C78.8169 98.8434 78.7367 98.601 78.6629 98.3562C78.5885 98.1113 78.52 97.865 78.4583 97.6167C78.3961 97.3685 78.3398 97.1192 78.2902 96.8681C78.2402 96.6174 78.1965 96.3652 78.1591 96.1121C78.1216 95.8595 78.0901 95.6054 78.0653 95.3508C78.04 95.0963 78.0211 94.8412 78.0085 94.5856C77.9963 94.3306 77.99 94.0746 77.99 93.819C77.99 93.563 77.9963 93.3074 78.0085 93.0519C78.0211 92.7963 78.04 92.5418 78.0653 92.2872C78.0901 92.0326 78.1216 91.7785 78.1591 91.5254C78.1965 91.2728 78.2402 91.0206 78.2902 90.77C78.3398 90.5188 78.3961 90.2696 78.4583 90.0213C78.52 89.773 78.5885 89.5267 78.6629 89.2819C78.7367 89.037 78.8169 88.7941 78.9033 88.5536C78.9893 88.3126 79.0816 88.0741 79.1793 87.8375C79.2769 87.6014 79.3809 87.3677 79.4902 87.1365C79.5995 86.9052 79.7142 86.6769 79.8352 86.451C79.9556 86.2255 80.0815 86.003 80.2131 85.7834C80.3443 85.5643 80.4813 85.3481 80.6232 85.1353C80.7655 84.923 80.9127 84.7136 81.0648 84.5081C81.2173 84.3031 81.3748 84.1015 81.537 83.9038C81.6993 83.706 81.8659 83.5122 82.0379 83.3227C82.2094 83.1332 82.3858 82.9481 82.5665 82.7669C82.7477 82.5862 82.9328 82.4098 83.1223 82.2383C83.3117 82.0664 83.5051 81.8992 83.7028 81.737C83.9006 81.5747 84.1022 81.4173 84.3077 81.2652C84.5127 81.1127 84.7221 80.9655 84.9344 80.8231C85.1472 80.6813 85.3634 80.5443 85.5825 80.4131C85.8021 80.2814 86.0246 80.1556 86.25 80.0346C86.4755 79.9141 86.7038 79.799 86.935 79.6897C87.1663 79.5804 87.4 79.4769 87.6361 79.3788C87.8722 79.2811 88.1107 79.1893 88.3517 79.1028C88.5927 79.0168 88.8351 78.9367 89.08 78.8623C89.3248 78.788 89.5711 78.72 89.8194 78.6578C90.0672 78.5956 90.3169 78.5392 90.5676 78.4897C90.8183 78.4397 91.0704 78.3959 91.323 78.3585C91.5762 78.3211 91.8298 78.2895 92.0843 78.2643C92.3389 78.2395 92.594 78.2205 92.8495 78.2079C93.1046 78.1953 93.3601 78.1895 93.6161 78.1895C93.8717 78.1895 94.1272 78.1953 94.3828 78.2079C94.6383 78.2205 94.8934 78.2395 95.1475 78.2643C95.4021 78.2895 95.6561 78.3211 95.9088 78.3585C96.1619 78.3959 96.4135 78.4397 96.6647 78.4897C96.9154 78.5392 97.1646 78.5956 97.4129 78.6578C97.6611 78.72 97.9075 78.788 98.1523 78.8623C98.3967 78.9367 98.6396 79.0168 98.8806 79.1028C99.1211 79.1893 99.3596 79.2811 99.5962 79.3788C99.8323 79.4769 100.066 79.5804 100.297 79.6897C100.529 79.799 100.757 79.9141 100.982 80.0346C101.208 80.1551 101.43 80.2814 101.649 80.4131C101.869 80.5443 102.085 80.6813 102.297 80.8231C102.51 80.9655 102.719 81.1127 102.925 81.2652C103.13 81.4173 103.332 81.5747 103.529 81.737C103.727 81.8992 103.921 82.0664 104.11 82.2379C104.299 82.4098 104.485 82.5862 104.665 82.7669C104.847 82.9481 105.022 83.1332 105.194 83.3227C105.366 83.5122 105.533 83.706 105.695 83.9038C105.858 84.1015 106.015 84.3031 106.167 84.5081C106.32 84.7136 106.467 84.923 106.609 85.1353C106.751 85.3481 106.887 85.5643 107.019 85.7839C107.151 86.003 107.277 86.2255 107.397 86.451C107.518 86.6769 107.633 86.9052 107.742 87.1365C107.851 87.3677 107.955 87.6014 108.053 87.8375C108.151 88.0741 108.242 88.3126 108.329 88.5536C108.415 88.7941 108.495 89.037 108.569 89.2819C108.644 89.5267 108.712 89.773 108.774 90.0213C108.836 90.2696 108.892 90.5188 108.942 90.77C108.992 91.0206 109.036 91.2728 109.073 91.5254C109.111 91.7785 109.142 92.0326 109.167 92.2872C109.192 92.5418 109.211 92.7963 109.223 93.0519C109.236 93.3074 109.242 93.563 109.242 93.819Z" fill="#00D8FF"/>
<mask id="mask0_201_456" style="mask-type:luminance" maskUnits="userSpaceOnUse" x="6" y="19" width="176" height="150">
<path d="M6.11975 19.7041H181.111V168.328H6.11975V19.7041Z" fill="white"/>
</mask>
<g mask="url(#mask0_201_456)">
<path d="M93.6165 62.0391C114.597 62.0391 134.087 65.0502 148.783 70.1106C166.49 76.2077 177.376 85.4492 177.376 93.8175C177.376 102.538 165.839 112.356 146.824 118.657C132.45 123.421 113.533 125.907 93.6165 125.907C73.1977 125.907 53.8622 123.574 39.3248 118.605C20.9333 112.317 9.85547 102.372 9.85547 93.8175C9.85547 85.5172 20.2497 76.3467 37.707 70.2588C52.4572 65.1153 72.4281 62.0391 93.615 62.0391H93.6165Z" stroke="#00D8FF" stroke-width="7.47646"/>
</g>
<mask id="mask1_201_456" style="mask-type:luminance" maskUnits="userSpaceOnUse" x="6" y="12" width="176" height="164">
<path d="M6.11963 12.0166H181.111V175.908H6.11963V12.0166Z" fill="white"/>
</mask>
<g mask="url(#mask1_201_456)">
<path d="M65.9599 78.0167C76.4411 59.8385 88.7855 44.4562 100.509 34.2499C114.635 21.9546 128.076 17.1391 135.324 21.3192C142.877 25.6756 145.616 40.5778 141.575 60.2014C138.522 75.0366 131.223 92.6683 121.273 109.925C111.072 127.618 99.3916 143.206 87.8265 153.316C73.1929 166.11 59.0451 170.741 51.6381 166.467C44.4489 162.323 41.7001 148.733 45.1485 130.567C48.0625 115.217 55.3751 96.3766 65.9555 78.0201L65.9599 78.0167Z" stroke="#00D8FF" stroke-width="7.47646"/>
<path d="M65.985 109.97C55.4756 91.8127 48.3179 73.4314 45.3306 58.1744C41.7349 39.7927 44.2773 25.7386 51.5181 21.545C59.0634 17.1759 73.339 22.2441 88.3166 35.546C99.6412 45.6032 111.269 60.7313 121.247 77.9705C131.477 95.6458 139.145 113.553 142.127 128.623C145.902 147.694 142.847 162.264 135.445 166.551C128.263 170.71 115.121 166.308 101.107 154.245C89.2669 144.054 76.5989 128.308 65.9841 109.967L65.985 109.97Z" stroke="#00D8FF" stroke-width="7.47646"/>
</g>
</svg>
